<svg width="393" height="282" viewBox="0 0 393 282" fill="none" xmlns="http://www.w3.org/2000/svg">
<g opacity="0.9" clip-path="url(#clip0_282_178)">
<path d="M271.967 66.2373C272.759 66.4555 273.494 66.845 274.12 67.3783C274.746 67.9115 275.248 68.5756 275.59 69.3237C275.931 70.0719 276.105 70.8859 276.098 71.7084C276.091 72.531 275.904 73.342 275.55 74.0845L284.144 83.6441L279.612 90.2862L267.666 76.6157C266.458 75.9381 265.542 74.8411 265.089 73.5324C264.636 72.2237 264.679 70.7943 265.209 69.515C265.739 68.2357 266.72 67.1955 267.965 66.5914C269.211 65.9873 270.635 65.8613 271.967 66.2373Z" fill="#A0616A"/>
<path d="M352.417 89.711C351.643 88.4493 350.627 87.3531 349.428 86.4852C348.228 85.6173 346.87 84.9947 345.43 84.6533C343.99 84.3119 342.497 84.2582 341.036 84.4955C339.575 84.7328 338.176 85.2562 336.917 86.0359L308.656 103.55L278.169 77.6206L270.584 84.6867L304.263 128.408L348.035 105.576C347.013 106.108 353.652 91.7213 352.417 89.711Z" fill="#CCCCCC"/>
<path d="M296.43 147.946C296.432 161.912 293.685 175.742 288.345 188.645C283.005 201.549 275.176 213.273 265.306 223.149C255.437 233.024 243.719 240.857 230.823 246.201C217.927 251.544 204.105 254.293 190.147 254.29C131.449 254.29 83.8638 206.677 83.8638 147.946C83.8537 136.522 85.684 125.17 89.2843 114.329C96.3527 93.1561 109.894 74.7421 127.994 61.691C146.094 48.6398 167.837 41.6121 190.147 41.6014C209.388 41.5948 228.27 46.8163 244.776 56.7086C261.283 66.6009 274.795 80.7927 283.871 97.7689C286.121 101.957 288.084 106.294 289.746 110.749C289.976 111.369 290.2 111.989 290.419 112.616V112.622C291.393 115.375 292.251 118.179 292.993 121.035C295.282 129.821 296.437 138.865 296.43 147.946Z" fill="#07235D"/>
<path d="M178.519 76.1966C173.742 73.6122 168.439 72.1533 163.014 71.9312C157.589 71.7091 152.184 72.7296 147.213 74.915C142.836 76.821 138.227 80.2403 136.766 86.4147C142.672 82.9274 150.317 88.4374 151.837 97.2765L151.482 97.3744C150.679 103.497 152.471 110.162 155.94 113.959C156.395 110.015 158.987 107.332 161.535 105.655C164.084 103.979 166.904 102.761 168.849 99.8793C171.155 96.4631 171.741 91.4703 172.657 86.9157C173.574 82.3611 175.312 77.4657 178.519 76.1966Z" fill="white"/>
<path d="M145.461 128.296C143.825 130.753 141.641 132.295 139.68 134.216C137.726 136.142 135.866 138.741 135.476 142.079C135.228 144.218 135.612 146.392 135.559 148.554C135.506 150.717 134.785 153.151 133.315 153.688C130.995 154.527 129.223 150.214 126.838 149.913C124.942 149.677 123.236 152.66 123.785 155.248C124.334 157.836 126.914 158.982 128.397 157.292C129.737 159.543 128.792 163.626 126.779 164.317C126.566 165.735 126.354 167.147 126.147 168.565C121.057 165.002 115.914 161.381 111.586 156.164C106.773 150.411 103.787 143.35 103.013 135.887C102.452 129.891 103.284 123.032 100.533 118.418C98.3302 114.725 94.5513 113.91 91.1502 114.14C90.5303 114.181 89.9044 114.252 89.2844 114.329C91.2902 108.302 93.8376 102.468 96.8954 96.9005C97.5874 96.6033 98.2304 96.2029 98.8026 95.7129C101.967 93.0248 103.373 87.5835 105.941 83.8201C106.107 83.5778 106.278 83.3415 106.455 83.1111C109.083 79.6786 112.602 77.912 116.003 76.2696C123.531 72.6126 131.278 68.9082 139.226 69.4163L136.964 69.6349C134.325 77.0318 131.683 84.4286 129.04 91.8255C128.639 92.9598 128.233 94.0961 127.824 95.2344C126.324 99.4408 124.777 103.919 125.007 108.628C125.143 111.416 126.111 114.394 127.954 115.351C129.672 116.237 131.55 115.15 133.209 114.075C133.911 113.626 134.608 113.177 135.311 112.722C137.832 111.097 140.625 109.431 143.288 110.518C145.727 111.511 147.527 114.825 147.87 118.4C148.184 121.874 147.337 125.355 145.461 128.296Z" fill="white"/>
<path d="M160.456 178.796C153.092 174.259 145.729 169.723 138.365 165.186L138.49 164.864C133.912 166.609 132.011 174.752 132.767 181.411C133.524 188.07 136.09 194.023 137.386 200.512C139.133 209.391 138.474 218.577 135.475 227.115C145.158 216.244 153.727 204.43 161.054 191.848C162.078 190.262 162.858 188.532 163.368 186.715C163.836 184.781 163.764 182.457 162.827 180.906C162.224 180.017 161.409 179.291 160.456 178.796Z" fill="white"/>
<path d="M131.394 96.2635C130.612 98.0226 130.312 100.368 131.021 102.188C131.746 104.047 133.278 104.887 134.688 105.587L138.757 107.605C140.111 108.276 141.57 108.954 142.949 108.402C144.614 107.735 145.768 105.125 145.469 102.701C145.151 100.122 143.527 98.3478 142.024 96.837C139.921 94.7229 137.818 92.6087 135.715 90.4945L134.53 91.9469C133.248 93.1979 132.188 94.6575 131.394 96.2635Z" fill="white"/>
<path d="M274.618 123.835C276.449 124.266 278.279 124.698 280.109 125.129C279.791 131.315 276.726 137.04 272.617 139.113C270.904 139.976 268.997 140.295 267.58 141.908C266.299 143.373 265.649 145.653 265.053 147.833C264.008 151.638 262.962 155.443 261.917 159.248C260.795 163.348 259.355 167.903 256.438 169.38C253.934 170.65 251.071 169.096 249.146 166.491C247.221 163.886 246.046 160.382 244.906 156.967C244.977 160.689 243.247 164.34 240.797 165.634C238.34 166.928 235.352 165.758 233.711 162.869C232.53 160.796 232.04 158.06 230.883 155.957C229.725 153.854 227.299 152.648 226.035 154.622C225.202 155.933 225.309 157.942 224.895 159.608C224.252 162.196 222.303 163.82 220.373 163.962C218.448 164.104 216.57 162.993 214.958 161.487C211.634 158.367 209.183 153.417 208.233 147.916C207.813 145.464 207.695 142.794 208.422 140.496C209.148 138.198 210.902 136.425 212.643 136.862C213.789 134.44 211.527 131.226 209.49 131.51C207.447 131.793 205.847 133.985 204.17 135.669C202.499 137.353 200.161 138.576 198.478 136.904C198.49 138.457 197.226 139.485 196.134 139.355C195.048 139.231 194.079 138.357 193.081 137.737C189.226 135.332 184.331 136.927 181.591 141.476C183.303 134.186 185.813 125.82 191.074 124.107C193.223 123.404 195.567 123.983 197.598 122.766C201.194 120.609 201.921 112.462 198.815 109.1C199.21 112.279 199.134 115.989 197.457 118.163C195.78 120.338 192.261 118.92 192.473 115.706C191.989 117.921 189.58 118.258 188.47 116.556C187.354 114.855 187.448 112.072 188.24 110.04C189.031 108.007 190.377 106.548 191.682 105.148C194.487 102.141 197.333 99.0982 200.58 97.2075C203.834 95.317 207.589 94.679 210.848 96.5577C212.567 97.5503 214.078 99.2045 215.832 100.079C217.586 100.959 219.812 100.847 220.975 98.7909C222.28 96.4986 221.666 93.0956 222.15 90.2302C223.018 85.1671 228.078 82.7979 230.883 86.1418C228.787 85.6042 226.62 88.0856 226.36 91.0928C226.094 94.1 227.612 97.1367 229.643 98.0466C233.056 99.559 236.398 95.7542 238.978 92.233C241.67 88.5465 244.367 84.8618 247.067 81.1792C247.498 80.5521 247.982 79.9631 248.514 79.4186C249.36 78.5937 250.487 78.1214 251.668 78.0973C252.849 78.0732 253.994 78.499 254.873 79.2886C257.601 81.5159 258.882 86.0829 261.12 89.2259C264.368 93.7928 269.227 94.9035 273.75 95.7897C277.122 96.4455 280.495 97.1052 283.871 97.7689C286.121 101.957 288.084 106.294 289.746 110.749C284.03 113.177 278.757 117.72 274.618 123.835Z" fill="white"/>
<path d="M285.518 194.92C282.988 200.06 280.046 204.986 276.72 209.649C274.595 208.739 272.309 210.364 270.32 211.888C268.241 213.483 265.744 215.037 263.612 213.584C261.433 212.095 260.731 207.93 261.421 204.627C262.112 201.331 263.836 198.707 265.507 196.214C267.279 193.567 269.174 190.82 271.636 189.792C274.104 188.764 277.275 190.218 277.996 193.727L279.743 193.668C278.763 192.321 279.277 189.532 280.594 189.042C282.111 188.469 283.428 190.554 284.325 192.398C284.727 193.231 285.134 194.07 285.518 194.92Z" fill="white"/>
<path d="M218.58 169.965C214.823 170.202 211.848 165.574 209.87 161.022C207.893 156.47 206.089 151.264 202.699 148.947C200.762 147.623 198.554 147.441 196.453 146.8C194.352 146.158 192.153 144.83 191.149 142.127L188.766 141.164C185.619 142.934 182.43 144.737 179.718 147.619C176.677 150.851 174.782 154.995 174.327 159.412C173.872 164.185 175.553 169.506 178.694 171.299C181.176 172.716 184.065 171.823 186.579 173.12C189.72 174.74 191.585 179.447 192.291 184.095C192.997 188.742 192.818 193.572 193.323 198.272C193.828 202.973 195.22 207.864 198.1 210.272C201.705 213.286 206.994 210.782 208.611 205.295C209.404 202.603 209.377 199.567 209.97 196.773C211.015 191.853 213.835 188.202 216.071 184.166C218.307 180.131 220.067 174.649 218.58 169.965Z" fill="white"/>
<path d="M181.458 121.619C181.808 121.942 182.135 122.289 182.436 122.658C182.748 123.196 182.907 123.808 182.896 124.429C182.886 125.051 182.706 125.657 182.376 126.184C182.829 126.158 183.271 126.039 183.675 125.833C184.079 125.628 184.436 125.341 184.724 124.99C185.409 124.209 186.013 123.359 186.524 122.453C186.907 121.828 187.314 120.983 187.054 120.24C186.877 119.734 186.457 119.517 186.163 119.136C185.697 118.532 185.581 117.573 185.34 116.744C184.818 114.953 183.57 113.636 182.214 113.448L182.402 113.484C181.836 113.678 181.441 114.578 181.566 115.387C181.68 116.124 182.153 116.736 182.106 117.488C182.039 118.57 180.959 119.077 180.892 120.158C180.881 120.701 181.085 121.226 181.458 121.619Z" fill="white"/>
<path d="M175.022 103.245C175.027 103.244 175.033 103.243 175.039 103.242C175.154 103.137 175.261 103.022 175.359 102.9L175.022 103.245Z" fill="#E6E6E6"/>
<path d="M176.148 108.32C176.979 107.786 177.443 106.308 177.168 105.071C176.895 103.841 175.929 103.015 175.038 103.242C174.78 103.504 174.459 103.696 174.106 103.8C173.753 103.904 173.379 103.917 173.02 103.836C172.469 103.695 171.865 103.329 171.387 103.744C171.114 104.054 170.922 104.428 170.831 104.831C170.654 105.374 170.477 105.917 170.3 106.461C170.216 106.655 170.194 106.871 170.237 107.078C170.271 107.161 170.326 107.234 170.396 107.29C170.466 107.346 170.55 107.383 170.638 107.397C171.699 107.71 172.76 108.023 173.821 108.336C174.594 108.564 175.429 108.783 176.148 108.32Z" fill="white"/>
<path d="M256.24 178.389C255.749 177.586 255.259 176.782 254.768 175.979C254.287 175.048 253.628 174.221 252.83 173.543C252.654 173.396 252.451 173.285 252.232 173.218C252.013 173.151 251.783 173.128 251.555 173.15C251.327 173.173 251.106 173.241 250.905 173.351C250.704 173.461 250.527 173.609 250.384 173.788L250.444 174.247C251.562 175.65 252.744 177.209 253.028 179.292C253.14 180.113 253.101 180.963 253.199 181.787C253.297 182.612 253.575 183.467 254.107 183.822C254.88 184.339 255.786 183.577 256.336 182.649C256.827 181.886 257.048 180.98 256.962 180.077C256.839 179.47 256.593 178.896 256.24 178.389Z" fill="white"/>
<path d="M278.065 147.707C278.207 146.777 278.349 145.846 278.491 144.915C278.721 143.893 278.75 142.836 278.575 141.803C278.535 141.577 278.451 141.362 278.327 141.169C278.203 140.977 278.042 140.811 277.853 140.681C277.664 140.552 277.451 140.462 277.226 140.416C277.002 140.37 276.771 140.37 276.546 140.415L276.297 140.804C276.249 142.598 276.15 144.553 275.027 146.329C274.584 147.029 274.007 147.654 273.552 148.348C273.096 149.042 272.759 149.876 272.937 150.49C273.195 151.383 274.379 151.385 275.397 151.028C276.264 150.761 277.016 150.21 277.531 149.464C277.828 148.921 278.009 148.323 278.065 147.707Z" fill="#E6E6E6"/>
<path d="M263.932 179.434C264.172 178.745 263.826 177.954 263.753 177.191C263.718 176.207 263.979 175.235 264.502 174.4C265.021 173.613 265.415 172.749 265.669 171.84C265.775 171.426 265.756 170.99 265.613 170.587C265.45 170.222 265.057 170.056 264.832 170.345L265.314 170.656C264.663 170.539 263.993 170.572 263.356 170.75C262.992 170.89 262.667 171.115 262.409 171.406C262.15 171.698 261.966 172.047 261.871 172.425C261.791 173.014 261.661 173.595 261.482 174.162C261.194 174.754 260.637 174.951 260.286 175.471C260.048 175.931 259.927 176.444 259.936 176.963C259.944 177.482 260.082 177.991 260.336 178.443C260.776 179.184 261.475 179.734 262.297 179.987C262.887 180.199 263.663 180.21 263.932 179.434Z" fill="white"/>
<path d="M277.633 183.57C277.846 184.125 278.131 184.649 278.482 185.129C279.137 185.79 280.029 185.384 280.825 185.223C281.547 185.109 282.286 185.193 282.965 185.465C283.643 185.737 284.235 186.188 284.678 186.77C284.37 185.23 283.696 183.787 282.715 182.561C281.733 181.336 280.472 180.364 279.037 179.728C277.161 178.962 275.186 178.888 273.235 178.82L272.898 178.906C273.757 181.407 276.453 181.351 277.633 183.57Z" fill="white"/>
<path d="M219.608 188.685L219.613 188.696C219.645 188.633 219.678 188.57 219.711 188.507L219.608 188.685Z" fill="#E6E6E6"/>
<path d="M217.529 192.71C217.076 193.534 216.686 194.39 216.363 195.273C215.936 196.703 215.653 198.172 215.518 199.658C215.413 200.503 215.38 201.583 215.909 201.995C216.061 202.096 216.245 202.138 216.425 202.113C216.606 202.089 216.772 201.999 216.891 201.861C217.185 201.55 217.426 201.192 217.603 200.803C218.643 199.01 219.451 197.092 220.006 195.096C220.513 192.993 220.508 190.517 219.613 188.696C218.918 190.034 218.224 191.372 217.529 192.71Z" fill="white"/>
<path d="M197.479 85.4703C197.81 85.7932 198.227 86.0124 198.68 86.1009C199.133 86.1894 199.602 86.1433 200.029 85.9683C200.914 85.5813 201.726 85.0448 202.429 84.3825C203.011 83.9515 203.505 83.4125 203.883 82.7948C204.092 82.4257 204.226 82.019 204.277 81.5981C204.328 81.1772 204.295 80.7503 204.181 80.342C203.852 79.3804 203.019 79.0581 202.283 78.8398C201.105 78.4904 199.928 78.141 198.75 77.7917L199.602 77.0234C198.726 76.5528 197.756 77.4263 197.208 78.5076C196.857 79.2137 196.612 79.968 196.482 80.7458C196.188 82.4432 196.475 84.4644 197.479 85.4703Z" fill="#E6E6E6"/>
<path d="M218.269 78.4869C218.601 78.853 219.06 79.079 219.552 79.1191C220.045 79.1592 220.534 79.0103 220.921 78.7027C221.253 78.4526 221.53 78.1351 221.732 77.771C221.934 77.4069 222.057 77.0042 222.093 76.5893C222.177 75.6625 221.719 74.6324 221.064 74.5524L221.214 73.6847C219.954 73.457 218.404 73.4114 217.728 74.9425C217.5 75.529 217.431 76.165 217.526 76.787C217.62 77.409 217.877 77.9951 218.269 78.4869Z" fill="#E6E6E6"/>
<path d="M215.492 32.3424C208.105 31.5086 200.689 33.6452 194.877 38.2822C189.064 42.9191 185.33 49.6765 184.497 57.0679C182.762 72.4596 190.866 105.883 205.642 119.719C212.599 93.2105 236.977 77.4872 240.203 63.3552C243.65 48.2547 230.875 34.0786 215.492 32.3424Z" fill="#6C63FF"/>
<path d="M210.383 66.5598C215.432 66.5598 219.525 62.4646 219.525 57.4131C219.525 52.3615 215.432 48.2664 210.383 48.2664C205.334 48.2664 201.242 52.3615 201.242 57.4131C201.242 62.4646 205.334 66.5598 210.383 66.5598Z" fill="white"/>
<path d="M200.771 132.907C204.078 132.907 206.759 130.225 206.759 126.916C206.759 123.608 204.078 120.926 200.771 120.926C197.465 120.926 194.784 123.608 194.784 126.916C194.784 130.225 197.465 132.907 200.771 132.907Z" fill="#6C63FF"/>
<path opacity="0.2" d="M217.947 50.8599C218.976 51.4786 219.873 52.294 220.587 53.2595C221.301 54.2251 221.818 55.3219 222.108 56.4874C222.398 57.6529 222.457 58.8642 222.279 60.0521C222.102 61.24 221.692 62.3814 221.074 63.4109C220.455 64.4405 219.641 65.3381 218.676 66.0526C217.711 66.767 216.614 67.2843 215.45 67.5748C213.097 68.1616 210.608 67.7894 208.53 66.5399C210.649 67.0115 212.866 66.7133 214.785 65.6985C216.704 64.6837 218.2 63.0187 219.004 61.0015C219.809 58.9842 219.869 56.7464 219.175 54.6886C218.481 52.6307 217.078 50.8872 215.216 49.7701C216.179 49.9836 217.101 50.3516 217.947 50.8599Z" fill="#231F20"/>
<path opacity="0.2" d="M240.239 63.3848C237.014 77.5167 212.635 93.2401 205.678 119.749C204.288 118.435 202.997 117.02 201.816 115.516C209.634 90.5987 232.496 75.4581 235.612 61.8041C238.402 49.5835 230.566 37.9695 219.323 33.0634C232.933 36.4867 243.398 49.5466 240.239 63.3848Z" fill="#231F20"/>
<path d="M129.828 68.0314C124.28 67.4053 118.711 69.0098 114.346 72.492C109.981 75.9742 107.177 81.0488 106.551 86.5994C105.248 98.1581 111.334 123.258 122.43 133.648C127.655 113.741 145.962 101.934 148.385 91.321C150.973 79.981 141.38 69.3353 129.828 68.0314Z" fill="#6C63FF"/>
<path d="M125.991 93.7275C129.782 93.7275 132.856 90.6522 132.856 86.8587C132.856 83.0651 129.782 79.9898 125.991 79.9898C122.2 79.9898 119.126 83.0651 119.126 86.8587C119.126 90.6522 122.2 93.7275 125.991 93.7275Z" fill="white"/>
<path d="M118.773 143.552C121.256 143.552 123.269 141.538 123.269 139.053C123.269 136.569 121.256 134.554 118.773 134.554C116.29 134.554 114.277 136.569 114.277 139.053C114.277 141.538 116.29 143.552 118.773 143.552Z" fill="#6C63FF"/>
<path opacity="0.2" d="M131.671 81.9375C132.444 82.4021 133.118 83.0144 133.654 83.7395C134.19 84.4646 134.578 85.2883 134.796 86.1635C135.014 87.0387 135.058 87.9484 134.925 88.8405C134.791 89.7326 134.484 90.5897 134.02 91.3628C133.555 92.136 132.943 92.8101 132.219 93.3466C131.494 93.8831 130.671 94.2716 129.796 94.4898C128.921 94.708 128.012 94.7517 127.121 94.6183C126.229 94.485 125.372 94.1772 124.6 93.7126C126.191 94.0668 127.856 93.8428 129.297 93.0807C130.738 92.3187 131.861 91.0683 132.465 89.5534C133.069 88.0385 133.115 86.358 132.594 84.8127C132.072 83.2673 131.019 81.958 129.621 81.119C130.344 81.2794 131.036 81.5558 131.671 81.9375Z" fill="#231F20"/>
<path opacity="0.2" d="M148.412 91.3432C145.989 101.956 127.682 113.764 122.457 133.671C121.414 132.684 120.445 131.622 119.558 130.492C125.428 111.78 142.597 100.41 144.937 90.1562C147.032 80.9789 141.148 72.2572 132.704 68.5729C142.925 71.1437 150.784 80.9512 148.412 91.3432Z" fill="#231F20"/>
<path d="M286.923 240.056C288.366 242.22 304.057 301.732 304.057 301.732L317.971 303.32L316.32 288.346L313.795 261.849L309.886 244.162C309.886 244.162 323.69 212.728 324.563 210.224L325.183 208.427L329.496 247.589C330.008 248.987 330.232 250.475 330.152 251.962C330.022 254.409 332.474 291.211 332.474 291.211L333.653 304.41L345.574 306.067L350.411 283.23C354.449 275.812 352.134 249.451 350.483 246.997C348.831 244.544 349.488 227.456 349.488 227.456C351.597 226.713 364.173 183.804 357.882 184.058C358.286 181.77 358.604 179.728 358.604 179.728L347.684 170.917L320.358 163.809L313.464 160.497C313.464 160.497 301.151 183.278 301.273 184.411C301.443 185.846 301.115 187.296 300.343 188.517L287.911 230.148C287.911 230.148 285.466 237.869 286.923 240.056Z" fill="#27293E"/>
<path d="M355.576 91.0869L351.229 81.8516L336.433 82.4205L331.606 92.0284C331.606 92.0284 317.814 108.512 317.367 113.871C316.806 120.613 321.472 153.65 316.806 151.509C316.806 151.509 305.805 164.429 312.315 164.429C318.824 164.429 348.27 182.924 350.202 185.004C352.134 187.084 360.759 188.433 360.036 184.091C359.313 179.748 355.576 156.265 355.576 156.265L365.692 119.339C368.603 111.367 369.51 102.424 362.928 97.0693L355.576 91.0869Z" fill="#CCCCCC"/>
<path d="M300.77 63.9049C298.791 63.1188 296.676 62.7305 294.547 62.7621C292.418 62.7937 290.316 63.2446 288.361 64.089C286.406 64.9334 284.637 66.1548 283.154 67.6835C281.67 69.2121 280.503 71.0181 279.717 72.9984C276.413 81.3264 275.866 101.214 282.014 111.182C289.919 97.4416 305.913 92.3681 309.858 84.9697C314.073 77.0643 309.093 67.2107 300.77 63.9049Z" fill="#6C63FF"/>
<path d="M294.114 82.4142C297.034 82.4142 299.402 80.0453 299.402 77.1231C299.402 74.2009 297.034 71.832 294.114 71.832C291.193 71.832 288.826 74.2009 288.826 77.1231C288.826 80.0453 291.193 82.4142 294.114 82.4142Z" fill="white"/>
<path d="M278.203 117.925C280.116 117.925 281.667 116.373 281.667 114.459C281.667 112.545 280.116 110.994 278.203 110.994C276.29 110.994 274.74 112.545 274.74 114.459C274.74 116.373 276.29 117.925 278.203 117.925Z" fill="#6C63FF"/>
<path opacity="0.2" d="M299.33 74.6142C300.299 75.6276 300.826 76.9843 300.796 78.3863C300.765 79.7883 300.18 81.1209 299.168 82.0912C298.156 83.0616 296.8 83.5903 295.399 83.5612C293.998 83.5322 292.666 82.9477 291.695 81.9362C292.806 82.5213 294.089 82.6916 295.314 82.4167C296.539 82.1418 297.627 81.4396 298.382 80.4357C299.137 79.4319 299.51 78.192 299.435 76.9379C299.36 75.6838 298.841 74.4974 297.971 73.5911C298.477 73.8565 298.935 74.202 299.33 74.6142Z" fill="#231F20"/>
<path opacity="0.2" d="M309.873 84.9916C305.929 92.39 289.935 97.4635 282.029 111.204C281.453 110.259 280.947 109.274 280.516 108.254C288.661 95.5333 303.719 90.5546 307.53 83.4065C310.942 77.0087 308.33 69.3356 302.798 64.8892C309.876 68.8674 313.736 77.7471 309.873 84.9916Z" fill="#231F20"/>
<path d="M276.642 113.266C277.448 113.1 278.279 113.113 279.079 113.303C279.879 113.493 280.627 113.857 281.271 114.368C281.916 114.879 282.44 115.525 282.808 116.261C283.175 116.997 283.377 117.804 283.399 118.626L295.396 123.234L294.375 131.212L277.525 124.467C276.142 124.412 274.827 123.852 273.829 122.892C272.832 121.932 272.221 120.639 272.112 119.259C272.003 117.878 272.404 116.505 273.239 115.401C274.074 114.297 275.285 113.537 276.642 113.266L276.642 113.266Z" fill="#A0616A"/>
<path d="M360.467 96.8266C359.204 96.055 357.801 95.5405 356.339 95.3126C354.876 95.0848 353.384 95.148 351.946 95.4986C350.508 95.8493 349.153 96.4806 347.96 97.3562C346.767 98.2318 345.758 99.3345 344.991 100.601L327.771 129.053L288.838 119.819L285.291 129.563L335.149 153.193L360.401 112.951C364.181 107.635 366.033 100.226 360.467 96.8266Z" fill="#CCCCCC"/>
<path d="M361.11 61.9574C361.111 64.6997 360.439 67.4003 359.154 69.8221C357.868 72.244 356.008 74.3131 353.737 75.8477C351.465 77.3823 348.852 78.3356 346.127 78.6239C343.401 78.9121 340.647 78.5265 338.105 77.5009C335.563 76.4753 333.312 74.8411 331.548 72.7417C329.785 70.6423 328.564 68.1419 327.992 65.46C327.42 62.7781 327.515 59.9967 328.268 57.36C329.021 54.7233 330.409 52.3118 332.311 50.3374L332.392 50.2571C332.526 50.1163 332.66 49.9756 332.8 49.8415C332.801 49.8415 332.802 49.8414 332.803 49.841C332.804 49.8407 332.805 49.8402 332.805 49.8396C332.806 49.839 332.806 49.8382 332.807 49.8374C332.807 49.8366 332.807 49.8357 332.807 49.8348C332.981 49.674 333.155 49.5132 333.336 49.359C335.756 47.2367 338.735 45.857 341.918 45.3851C345.101 44.9133 348.352 45.3693 351.283 46.6986C354.213 48.0279 356.699 50.1741 358.442 52.8803C360.184 55.5865 361.111 58.7379 361.11 61.9574V61.9574Z" fill="#2F2E41"/>
<path d="M340.241 79.8818C347.996 79.8818 354.281 73.5922 354.281 65.8336C354.281 58.075 347.996 51.7854 340.241 51.7854C332.487 51.7854 326.201 58.075 326.201 65.8336C326.201 73.5922 332.487 79.8818 340.241 79.8818Z" fill="#9E616A"/>
<path d="M355.151 69.8399L352.825 69.4287C351.525 69.1923 350.328 68.5645 349.395 67.6291C348.461 66.6938 347.835 65.4955 347.601 64.1946L345.331 68.001L345.232 68.0339C339.823 69.8305 334.197 69.2932 328.033 66.3934C326.271 65.557 324.561 64.6138 322.914 63.5692L322.792 63.4933L322.782 63.3503C322.468 58.7803 323.493 54.9625 325.669 52.6C326.504 51.7111 327.518 51.0089 328.644 50.5395C329.769 50.07 330.981 49.8438 332.2 49.8757C332.287 49.853 332.367 49.809 332.432 49.7476C332.464 49.7246 332.495 49.7018 332.526 49.6801V49.6565L332.687 49.5806C333.034 49.4176 333.387 49.2616 333.74 49.1189C336.518 48.0428 339.543 47.7729 342.468 48.3401C345.392 48.9073 348.098 50.2887 350.273 52.3254C354.598 56.4565 356.581 63.3893 355.209 69.5774L355.151 69.8399Z" fill="#2F2E41"/>
<path d="M384.764 81.809C379.986 79.3415 386.131 70.3861 384.896 65.1501C383.662 59.9141 374.77 58.23 374.204 52.8802C373.637 47.5303 372.305 42.0125 368.776 37.953C366.522 35.3589 363.2 33.444 359.779 33.7689C358.622 33.8788 357.502 34.237 356.496 34.8191C355.489 35.4011 354.62 36.1934 353.947 37.1419C353.274 38.0904 352.814 39.1729 352.597 40.3156C352.38 41.4582 352.411 42.6343 352.69 43.7636C351.716 42.383 349.196 42.6822 348.572 44.2526C348.017 45.6488 349.242 47.3399 350.684 47.4634C352.571 49.7946 354.731 52.2688 357.687 52.739C358.158 52.8473 358.647 52.847 359.118 52.7382C359.589 52.6295 360.029 52.4152 360.405 52.1114C361.1 51.4432 361.154 50.1074 360.329 49.6081C364.044 51.0844 366.222 55.1029 366.773 59.0638C367.324 63.0247 366.561 67.0324 366.059 70.9998C365.556 74.9672 365.34 79.1407 366.895 82.825C368.731 87.1779 372.961 90.2978 377.576 91.2983C382.191 92.2988 387.106 91.321 391.284 89.1179C395.462 86.9146 398.945 83.5512 401.791 79.7805C396.889 83.2634 390.107 84.5683 384.764 81.809Z" fill="#2F2E41"/>
<path d="M354.553 69.4493C354.553 69.4493 350.394 53.9159 332.566 50.3307C332.546 50.3241 332.479 50.2972 332.392 50.2571C332.338 50.2235 332.271 50.19 332.204 50.1565C332.405 50.0426 332.599 49.9421 332.8 49.8415C332.801 49.8415 332.802 49.8414 332.803 49.841C332.804 49.8407 332.804 49.8402 332.805 49.8396C332.806 49.839 332.806 49.8382 332.806 49.8374C332.807 49.8366 332.807 49.8357 332.807 49.8348C332.981 49.674 333.155 49.5132 333.336 49.359L333.845 49.3792C333.845 49.3792 351.734 46.5445 354.553 69.4493Z" fill="#FD6584"/>
<path opacity="0.2" d="M345.242 119.292L335.172 130.965L318.534 126.049L336.672 134.412L345.242 119.292Z" fill="black"/>
<path d="M412.476 228.112C405.226 228.112 397.281 227.838 388.639 227.29C343.942 224.45 286.045 214.576 225.614 199.487C165.183 184.399 109.437 165.898 68.6466 147.394C48.7762 138.379 33.5258 129.846 23.3195 122.032C12.5136 113.759 7.78702 106.548 9.27036 100.599C12.1606 89.011 37.7522 86.4757 58.712 86.3896L58.7191 88.0748C29.9358 88.1931 12.955 92.7861 10.9048 101.008C8.29308 111.479 29.5928 127.826 69.3421 145.859C110.043 164.322 165.686 182.788 226.022 197.853C286.357 212.917 344.147 222.774 388.746 225.608C432.301 228.376 458.781 223.958 461.392 213.486C463.56 204.792 449.266 191.985 421.143 177.423L421.918 175.926C442.352 186.507 466.072 201.683 463.026 213.894C461.543 219.843 453.984 223.986 440.561 226.21C432.909 227.477 423.51 228.112 412.476 228.112Z" fill="#6C63FF"/>
</g>
<defs>
<clipPath id="clip0_282_178">
<rect width="393" height="282" fill="white"/>
</clipPath>
</defs>
</svg>
