<svg width="191" height="234" viewBox="0 0 191 234" fill="none" xmlns="http://www.w3.org/2000/svg">
<g opacity="0.9" clip-path="url(#clip0_285_43)">
<path d="M87.9062 231.65C87.9127 231.64 87.9193 231.633 87.9258 231.623C87.9127 231.663 87.8997 231.704 87.8899 231.748L87.9062 231.65Z" fill="#F0F0F0"/>
<path d="M92.3649 225.323C92.1083 225.68 91.8453 226.027 91.579 226.374C91.3224 226.707 91.0659 227.04 90.8093 227.377C90.1387 228.234 89.5401 229.148 89.02 230.111C88.7592 230.611 88.5419 231.134 88.3704 231.673L87.958 231.576C87.9483 231.592 87.9374 231.608 87.9255 231.623C87.9295 231.606 87.9349 231.589 87.9418 231.572C88.6984 229.121 90.4196 227.222 91.9135 225.182C91.9655 225.114 92.0142 225.047 92.0629 224.98L92.3649 225.323Z" fill="white"/>
<path d="M90.0916 211.807C92.4328 210.146 94.0838 207.63 94.7155 204.762C94.7779 204.478 95.2 204.593 95.1377 204.877C94.475 207.86 92.7517 210.474 90.3117 212.198C90.0791 212.362 89.8602 211.971 90.0916 211.807H90.0916Z" fill="white"/>
<path d="M200.099 135.934L187.567 66.3645C187.353 65.2177 186.769 64.1804 185.911 63.4228C185.054 62.6651 183.973 62.2321 182.847 62.1946C182.746 62.1923 182.644 62.1923 182.543 62.1946L174.006 62.5121L173.087 62.5471L168.827 62.7059L167.908 62.7386L165.167 62.8413L109.906 64.8983C109.822 64.903 109.737 64.903 109.653 64.9006L97.2701 64.6321L92.6875 64.5341L92.5411 64.5317L89.1588 64.457L59.6859 63.8219L51.8718 63.6515L48.0187 63.5698L47.0955 63.5488L42.702 63.4554L41.781 63.4344L37.2862 63.3387L36.3651 63.3177L31.4267 63.2102L30.6521 63.1939L26.2473 63.0982L25.5515 63.0842H25.4502C24.2808 63.0891 23.1508 63.5225 22.2598 64.3078C21.3689 65.0931 20.7745 66.1797 20.5816 67.3755L9.24771 139.567C9.13261 140.299 9.17223 141.047 9.36382 141.761C9.55541 142.475 9.89439 143.137 10.3573 143.701C10.8202 144.266 11.3959 144.719 12.0446 145.03C12.6933 145.341 13.3994 145.502 14.1141 145.502H79.2031C80.1611 145.505 81.0934 145.824 81.8649 146.413L83.0989 147.361C83.9494 148.01 84.9771 148.361 86.0331 148.365H124.392C125.04 148.366 125.682 148.235 126.281 147.978C126.88 147.72 127.423 147.342 127.88 146.866C128.662 146.056 129.704 145.574 130.808 145.514L195.509 141.979C196.211 141.941 196.897 141.748 197.521 141.413C198.144 141.078 198.692 140.608 199.127 140.036C199.561 139.464 199.873 138.801 200.04 138.094C200.208 137.387 200.228 136.65 200.099 135.934V135.934Z" fill="#CCCCCC"/>
<path d="M189.844 134.043L182.858 62.288C182.856 62.2576 182.852 62.225 182.847 62.1946C182.716 61.0481 182.17 59.9959 181.32 59.2505L166.293 46.2713C165.64 45.7026 164.828 45.3663 163.976 45.3117C157.101 44.8541 122.149 43.1591 109.248 54.77C108.857 55.1232 108.395 55.3831 107.896 55.5316C107.398 55.68 106.874 55.7133 106.361 55.6292C105.847 55.5428 105.358 55.3424 104.926 55.0418C104.493 54.7412 104.129 54.3475 103.857 53.8874C102.76 52.1147 101.323 50.5951 99.6346 49.4233C98.8767 48.8777 98.087 48.381 97.2701 47.936C96.5473 47.5415 95.7613 47.1585 94.9056 46.7897C94.1693 46.4721 93.3833 46.1663 92.5411 45.8744C88.1747 44.3615 82.3377 43.2314 74.5371 42.8532C71.3012 42.6944 67.7837 42.6734 64.0838 42.7878C60.7059 42.8906 57.1164 43.103 53.4165 43.4205L53.3625 43.4229L28.3281 59.2691C27.7668 59.6319 27.2925 60.1223 26.941 60.7031C26.5895 61.284 26.37 61.9401 26.2991 62.6219L26.2473 63.0982L18.2981 136.74C18.2294 137.365 18.2849 137.999 18.4611 138.602C18.6373 139.204 18.9305 139.763 19.3227 140.244C19.7045 140.713 20.1799 141.09 20.716 141.35C21.2522 141.61 21.8363 141.745 22.4281 141.748H84.1123C84.9324 141.752 85.7269 142.044 86.3664 142.577L89.0597 144.813C89.7614 145.398 90.6301 145.725 91.53 145.743L118.652 146.203H118.717C119.402 146.201 120.075 146.02 120.674 145.675L125.905 142.663C126.383 142.388 126.914 142.228 127.459 142.196L185.919 138.995C186.488 138.964 187.045 138.808 187.553 138.538C188.061 138.269 188.508 137.892 188.866 137.431C189.238 136.962 189.516 136.421 189.684 135.839C189.852 135.257 189.906 134.647 189.844 134.043Z" fill="#E6E6E6"/>
<path d="M169.438 121.103L168.62 109.934L165.168 62.8427L164.655 55.8762C164.525 54.0464 163.743 52.3323 162.46 51.0681C161.178 49.8038 159.487 49.08 157.718 49.0378C145.069 48.701 122.164 49.2937 110.924 57.1018C109.674 57.9829 108.158 58.3628 106.658 58.1708C105.158 57.9788 103.776 57.2279 102.77 56.0581C101.215 54.2878 99.3474 52.8421 97.2686 51.7987C95.7473 51.0077 94.1659 50.3478 92.5402 49.8256C87.7826 48.2499 81.779 47.2925 74.5295 46.9535L57.3241 46.8492H57.2949C56.103 46.8503 54.9563 47.3219 54.0876 48.1681C53.219 49.0142 52.6937 50.1715 52.6184 51.4048L51.8715 63.6508L48.6077 117.355C48.5467 118.356 48.6824 119.359 49.0065 120.303C49.3307 121.248 49.8366 122.114 50.4935 122.849C51.1504 123.585 51.9446 124.174 52.828 124.582C53.7113 124.99 54.6653 125.207 55.6321 125.221C84.5123 125.665 97.129 131.985 102.63 137.204C103.8 138.317 105.294 138.993 106.877 139.126C108.459 139.259 110.039 138.841 111.366 137.938C121.352 131.157 137.954 129.271 151.168 128.978C155.214 128.891 158.942 128.948 162.066 129.062C163.071 129.1 164.071 128.917 165.002 128.526C165.933 128.135 166.775 127.544 167.47 126.793C168.166 126.042 168.701 125.146 169.04 124.166C169.38 123.185 169.515 122.141 169.438 121.103Z" fill="white"/>
<path d="M26.0647 136.68C26.0539 136.68 26.0427 136.679 26.0319 136.678C25.9717 136.674 25.9129 136.657 25.8589 136.629C25.8048 136.601 25.7567 136.563 25.7171 136.515C25.6775 136.468 25.6473 136.413 25.6282 136.354C25.609 136.294 25.6014 136.232 25.6056 136.169L30.5747 63.4232C30.5782 63.3605 30.5938 63.2992 30.6206 63.2428C30.6473 63.1864 30.6847 63.1362 30.7304 63.095C30.7762 63.0538 30.8294 63.0226 30.887 63.003C30.9445 62.9835 31.0053 62.9761 31.0657 62.9812C31.1259 62.9856 31.1847 63.0023 31.2387 63.0302C31.2928 63.0582 31.341 63.0969 31.3805 63.1442C31.4201 63.1915 31.4503 63.2464 31.4695 63.3057C31.4886 63.3651 31.4962 63.4278 31.492 63.4903L26.5229 136.236C26.5148 136.357 26.463 136.469 26.378 136.552C26.293 136.634 26.181 136.68 26.0647 136.68Z" fill="white"/>
<path d="M32.0445 133.818C32.0337 133.818 32.0225 133.818 32.0117 133.817C31.9514 133.812 31.8926 133.796 31.8386 133.768C31.7846 133.74 31.7364 133.701 31.6968 133.654C31.6572 133.607 31.627 133.552 31.6079 133.492C31.5888 133.433 31.5811 133.37 31.5854 133.308L36.5544 60.5617C36.558 60.499 36.5736 60.4377 36.6003 60.3813C36.6271 60.325 36.6644 60.2747 36.7101 60.2335C36.7559 60.1923 36.8091 60.1611 36.8667 60.1415C36.9243 60.122 36.985 60.1146 37.0454 60.1197C37.1056 60.1241 37.1645 60.1408 37.2185 60.1687C37.2725 60.1967 37.3207 60.2354 37.3603 60.2827C37.3999 60.33 37.4301 60.3849 37.4492 60.4443C37.4683 60.5036 37.476 60.5663 37.4717 60.6288L32.5027 133.375C32.4946 133.495 32.4428 133.608 32.3577 133.69C32.2727 133.772 32.1608 133.818 32.0445 133.818Z" fill="white"/>
<path d="M37.5645 132.387C37.5537 132.387 37.5425 132.387 37.5317 132.386C37.4714 132.382 37.4126 132.365 37.3586 132.337C37.3046 132.309 37.2564 132.27 37.2168 132.223C37.1772 132.176 37.147 132.121 37.1279 132.062C37.1088 132.002 37.1011 131.939 37.1054 131.877L42.0745 59.131C42.078 59.0683 42.0936 59.0069 42.1203 58.9506C42.1471 58.8942 42.1844 58.844 42.2302 58.8028C42.2759 58.7616 42.3291 58.7303 42.3867 58.7108C42.4443 58.6912 42.5051 58.6838 42.5654 58.689C42.6257 58.6934 42.6845 58.7101 42.7385 58.738C42.7925 58.766 42.8407 58.8047 42.8803 58.852C42.9199 58.8992 42.9501 58.9541 42.9692 59.0135C42.9883 59.0729 42.996 59.1356 42.9917 59.198L38.0227 131.944C38.0146 132.064 37.9628 132.177 37.8778 132.259C37.7927 132.342 37.6808 132.387 37.5645 132.387Z" fill="white"/>
<path d="M43.0843 129.526C43.0735 129.526 43.0623 129.526 43.0515 129.525C42.9912 129.52 42.9324 129.504 42.8784 129.476C42.8244 129.448 42.7762 129.409 42.7366 129.362C42.697 129.314 42.6668 129.259 42.6477 129.2C42.6286 129.141 42.6209 129.078 42.6252 129.016L47.5942 56.2695C47.5978 56.2068 47.6134 56.1455 47.6401 56.0891C47.6669 56.0327 47.7042 55.9825 47.75 55.9413C47.7957 55.9001 47.8489 55.8688 47.9065 55.8493C47.9641 55.8298 48.0248 55.8224 48.0852 55.8275C48.1455 55.8319 48.2043 55.8486 48.2583 55.8765C48.3123 55.9045 48.3605 55.9432 48.4001 55.9905C48.4397 56.0378 48.4699 56.0927 48.489 56.152C48.5081 56.2114 48.5158 56.2741 48.5115 56.3366L43.5424 129.083C43.5344 129.203 43.4826 129.316 43.3976 129.398C43.3125 129.48 43.2006 129.526 43.0843 129.526Z" fill="white"/>
<path d="M184.298 137.157C184.309 137.157 184.32 137.156 184.331 137.155C184.391 137.151 184.45 137.134 184.504 137.106C184.558 137.078 184.606 137.04 184.646 136.992C184.685 136.945 184.716 136.89 184.735 136.831C184.754 136.771 184.761 136.709 184.757 136.646L179.788 63.9001C179.785 63.8374 179.769 63.7761 179.742 63.7197C179.715 63.6634 179.678 63.6131 179.632 63.5719C179.587 63.5308 179.533 63.4995 179.476 63.4799C179.418 63.4604 179.357 63.453 179.297 63.4582C179.237 63.4625 179.178 63.4792 179.124 63.5072C179.07 63.5351 179.022 63.5738 178.982 63.6211C178.943 63.6684 178.912 63.7233 178.893 63.7827C178.874 63.842 178.867 63.9047 178.871 63.9672L183.84 136.713C183.848 136.834 183.9 136.946 183.985 137.028C184.07 137.111 184.182 137.157 184.298 137.157Z" fill="white"/>
<path d="M178.318 132.864C178.329 132.864 178.34 132.864 178.351 132.863C178.411 132.859 178.47 132.842 178.524 132.814C178.578 132.786 178.626 132.747 178.666 132.7C178.706 132.653 178.736 132.598 178.755 132.538C178.774 132.479 178.782 132.416 178.777 132.354L173.808 59.6079C173.805 59.5452 173.789 59.4839 173.762 59.4275C173.736 59.3711 173.698 59.3209 173.653 59.2797C173.607 59.2385 173.554 59.2072 173.496 59.1877C173.438 59.1682 173.378 59.1608 173.317 59.1659C173.257 59.1703 173.198 59.187 173.144 59.2149C173.09 59.2429 173.042 59.2816 173.002 59.3289C172.963 59.3762 172.933 59.431 172.914 59.4904C172.894 59.5498 172.887 59.6125 172.891 59.675L177.86 132.421C177.868 132.541 177.92 132.654 178.005 132.736C178.09 132.819 178.202 132.864 178.318 132.864Z" fill="white"/>
<path d="M172.799 128.095C172.809 128.095 172.821 128.095 172.831 128.094C172.892 128.089 172.95 128.073 173.004 128.045C173.058 128.017 173.107 127.978 173.146 127.931C173.186 127.884 173.216 127.829 173.235 127.769C173.254 127.71 173.262 127.647 173.258 127.585L168.289 54.8388C168.285 54.7761 168.269 54.7147 168.243 54.6584C168.216 54.602 168.179 54.5518 168.133 54.5106C168.087 54.4694 168.034 54.4381 167.976 54.4186C167.919 54.399 167.858 54.3916 167.798 54.3968C167.737 54.4012 167.679 54.4178 167.624 54.4458C167.57 54.4738 167.522 54.5125 167.483 54.5598C167.443 54.607 167.413 54.6619 167.394 54.7213C167.375 54.7807 167.367 54.8434 167.371 54.9059L172.34 127.652C172.348 127.772 172.4 127.885 172.485 127.967C172.57 128.049 172.682 128.095 172.799 128.095Z" fill="white"/>
<path d="M59.9141 63.2825C70.2825 59.8527 81.8499 60.7608 91.6725 65.5926C94.4751 66.9641 97.122 68.6544 99.5644 70.6323C100.255 71.1945 101.239 70.1888 100.54 69.6206C91.5183 62.3654 80.1825 58.9188 68.8103 59.9734C65.6641 60.2653 62.5581 60.9123 59.5473 61.9029C58.7044 62.1817 59.0647 63.5635 59.9141 63.2825H59.9141Z" fill="#3F3D56"/>
<path d="M116.968 71.1873C126.608 65.9339 138.151 64.7884 148.632 67.7704C151.62 68.6185 154.508 69.8089 157.242 71.3197C158.025 71.753 158.723 70.5184 157.939 70.0843C147.949 64.5578 135.958 63.2856 125.05 66.3663C122.007 67.2272 119.063 68.4295 116.271 69.9519C115.485 70.3804 116.182 71.6157 116.968 71.1873Z" fill="#3F3D56"/>
<path d="M116.968 80.7255C126.608 75.4722 138.151 74.3266 148.632 77.3086C151.62 78.1567 154.508 79.3472 157.242 80.8579C158.025 81.2912 158.723 80.0566 157.939 79.6225C147.949 74.0961 135.958 72.8239 125.05 75.9045C122.007 76.7655 119.063 77.9678 116.271 79.4901C115.485 79.9187 116.182 81.154 116.968 80.7255V80.7255Z" fill="#3F3D56"/>
<path d="M158.276 89.7521C158.284 89.6293 158.255 89.5071 158.194 89.4013C158.134 89.2956 158.044 89.2112 157.936 89.1591C149.934 84.8146 140.861 83.0525 131.884 84.0996C131.828 84.1043 131.776 84.1136 131.715 84.1183H131.713C131.658 84.1234 131.603 84.132 131.549 84.144C126.21 84.781 121.03 86.4361 116.272 89.026C116.168 89.0901 116.082 89.181 116.022 89.2899C115.963 89.3988 115.932 89.5219 115.932 89.6471V107.441C115.933 107.55 115.959 107.658 116.007 107.755C116.055 107.853 116.123 107.938 116.207 108.004C116.292 108.07 116.389 108.116 116.493 108.137C116.596 108.158 116.703 108.155 116.805 108.127C117.017 108.064 117.229 108.003 117.445 107.945C122.255 106.595 127.194 105.794 132.172 105.556C132.278 105.552 132.384 105.547 132.494 105.542C136.549 105.362 140.612 105.513 144.643 105.995C144.728 106 144.812 106.01 144.896 106.023C145.103 106.047 145.314 106.072 145.522 106.1C145.605 106.11 145.684 106.119 145.76 106.133C146.567 106.238 147.366 106.357 148.168 106.486C149.325 106.677 150.483 106.89 151.64 107.125C151.712 107.139 151.786 107.158 151.861 107.172C153.719 107.555 155.567 107.999 157.407 108.489C157.51 108.516 157.617 108.519 157.721 108.497C157.824 108.476 157.922 108.43 158.006 108.363C158.09 108.297 158.159 108.211 158.206 108.113C158.254 108.015 158.279 107.907 158.281 107.798V89.7801C158.282 89.7706 158.28 89.761 158.276 89.7521Z" fill="#3F3D56"/>
<path d="M138.48 89.171C138.085 88.5675 137.616 87.9232 136.882 87.7262C136.033 87.498 135.16 87.9513 134.42 88.3986C132.218 89.7279 130.086 91.1776 128.033 92.7413L128.035 92.7648L132.801 92.4615C133.949 92.3884 135.136 92.3053 136.15 91.8042C136.515 91.5674 136.922 91.4103 137.347 91.3424C137.61 91.3572 137.868 91.426 138.106 91.5448C138.344 91.6636 138.557 91.83 138.732 92.0345C140.929 94.193 141.564 97.4939 144.028 99.3903C142.46 95.8276 140.604 92.409 138.48 89.171Z" fill="white"/>
<path d="M132.495 105.542C132.385 105.547 132.279 105.552 132.173 105.556C131.405 105.27 130.619 105.017 129.823 104.798C129.308 104.655 128.783 104.526 128.259 104.416C127.665 104.283 127.068 104.178 126.47 104.087C125.331 103.916 124.184 103.815 123.034 103.787C123.025 103.788 123.016 103.787 123.008 103.784C122.999 103.781 122.992 103.777 122.985 103.771C122.979 103.765 122.973 103.757 122.97 103.749C122.966 103.741 122.964 103.732 122.964 103.723C122.964 103.714 122.966 103.705 122.97 103.696C122.973 103.688 122.979 103.68 122.985 103.674C122.992 103.668 122.999 103.664 123.008 103.661C123.016 103.658 123.025 103.657 123.034 103.658C123.181 103.658 123.328 103.663 123.47 103.673C124.623 103.717 125.772 103.833 126.911 104.021C127.505 104.121 128.098 104.24 128.687 104.374C129.22 104.498 129.754 104.636 130.278 104.789C131.028 105.008 131.767 105.259 132.495 105.542Z" fill="white"/>
<path d="M145.761 106.133C145.683 106.119 145.605 106.109 145.522 106.1C145.205 105.828 144.883 105.571 144.547 105.318C144.128 105.003 143.696 104.707 143.254 104.431C142.276 103.815 141.255 103.276 140.2 102.819C138.531 102.098 136.804 101.533 135.039 101.131C133.025 100.673 130.987 100.342 128.935 100.139C126.883 99.9191 124.823 99.7857 122.762 99.6521C122.675 99.6473 122.67 99.5138 122.762 99.5186C123.02 99.5376 123.277 99.5519 123.539 99.571C125.623 99.7046 127.707 99.8572 129.777 100.1C131.829 100.329 133.865 100.695 135.872 101.197C137.584 101.635 139.256 102.23 140.867 102.976C141.793 103.408 142.691 103.903 143.553 104.459C144.101 104.817 144.63 105.199 145.136 105.604C145.347 105.776 145.559 105.947 145.761 106.133Z" fill="white"/>
<path d="M144.896 106.024C144.813 106.01 144.728 106 144.643 105.995C144.547 105.914 144.446 105.838 144.344 105.761C143.636 105.236 142.897 104.756 142.132 104.326C141.437 103.934 140.723 103.579 139.993 103.262C138.325 102.54 136.598 101.975 134.832 101.574C132.818 101.117 130.78 100.785 128.728 100.582C126.676 100.363 124.616 100.229 122.555 100.096C122.468 100.086 122.468 99.9574 122.555 99.9621C122.817 99.9812 123.075 99.9955 123.332 100.015C125.416 100.148 127.5 100.301 129.57 100.544C131.622 100.772 133.658 101.138 135.665 101.641C137.378 102.078 139.049 102.673 140.66 103.42C141.267 103.706 141.86 104.016 142.44 104.354C143.3 104.844 144.121 105.402 144.896 106.024Z" fill="white"/>
<path d="M151.86 107.173C151.787 107.159 151.713 107.14 151.64 107.125C151.557 107.035 151.479 106.939 151.4 106.844C151.005 106.372 150.614 105.895 150.227 105.413C148.705 103.534 147.261 101.598 145.899 99.6235C144.731 97.9352 143.622 96.2136 142.573 94.4585C142.072 93.6287 141.589 92.7893 141.115 91.9404C140.747 91.2823 140.388 90.6226 140.039 89.9613C139.938 89.7705 139.841 89.5797 139.744 89.3889C139.519 88.9406 139.294 88.4876 139.054 88.0441C138.794 87.5007 138.413 87.0297 137.941 86.6705C137.706 86.507 137.433 86.41 137.15 86.3892C136.751 86.3907 136.359 86.4956 136.009 86.6944C133.436 87.9369 131.008 89.4811 128.774 91.2966C126.592 93.0564 124.618 95.0783 122.895 97.32C122.84 97.3868 122.72 97.3248 122.771 97.2532C122.978 96.9862 123.19 96.7191 123.401 96.4568C125.057 94.4259 126.922 92.5885 128.962 90.9771C128.967 90.9723 128.976 90.9675 128.981 90.9628C129.16 90.8149 129.34 90.6719 129.524 90.5336C130.663 89.6638 131.848 88.8613 133.075 88.1299C133.7 87.7531 134.34 87.3954 134.993 87.0568C135.154 86.971 135.319 86.8852 135.485 86.8041C135.651 86.7183 135.816 86.6372 135.982 86.5561C136.31 86.3828 136.668 86.2806 137.035 86.2557C138.314 86.2366 138.972 87.5719 139.427 88.4733C139.57 88.7547 139.717 89.036 139.859 89.3174C140.411 90.3809 140.986 91.4397 141.584 92.4841C141.948 93.1327 142.325 93.7766 142.707 94.4156C143.254 95.3266 143.815 96.2279 144.399 97.1245C144.399 97.1252 144.4 97.1258 144.4 97.1264C144.4 97.127 144.4 97.1275 144.401 97.1279C144.401 97.1284 144.402 97.1287 144.402 97.129C144.403 97.1292 144.403 97.1293 144.404 97.1293C145.08 98.188 145.784 99.2277 146.511 100.263C147.757 102.032 149.064 103.762 150.43 105.451C150.899 106.033 151.376 106.607 151.86 107.173Z" fill="white"/>
<path d="M158.282 105.07V105.289C157.826 104.736 157.362 104.188 156.902 103.639C156.709 103.41 156.515 103.181 156.322 102.952C155.503 101.989 154.68 101.029 153.852 100.072C153.02 99.118 152.187 98.1642 151.345 97.2151C151.143 96.9862 150.94 96.7573 150.733 96.5284C150.568 96.336 150.388 96.1574 150.195 95.9942C150.001 95.8266 149.778 95.6987 149.537 95.6174C149.261 95.538 148.969 95.5347 148.691 95.6079C148.374 95.6843 148.07 95.8035 147.762 95.9036C147.444 96.0133 147.132 96.1182 146.814 96.2231C146.18 96.4378 145.549 96.6524 144.915 96.867C144.907 96.8703 144.898 96.8719 144.89 96.8718C144.881 96.8716 144.873 96.8697 144.865 96.8662C144.858 96.8626 144.851 96.8574 144.845 96.851C144.839 96.8446 144.835 96.837 144.832 96.8288C144.828 96.8198 144.827 96.81 144.827 96.8003C144.827 96.7905 144.83 96.7809 144.834 96.7723C144.839 96.7636 144.845 96.7561 144.852 96.7502C144.86 96.7443 144.869 96.7402 144.878 96.7382C145.034 96.6858 145.195 96.6333 145.356 96.5808C145.996 96.3614 146.63 96.1469 147.27 95.9323C147.587 95.8225 147.904 95.7176 148.222 95.6127C148.516 95.4968 148.827 95.4323 149.142 95.422C149.656 95.4603 150.138 95.6948 150.494 96.0801C150.692 96.2709 150.871 96.4711 151.051 96.6762C151.262 96.9147 151.474 97.1531 151.686 97.3916C152.536 98.355 153.381 99.3215 154.22 100.291C155.062 101.264 155.896 102.239 156.722 103.215C156.782 103.286 156.842 103.358 156.902 103.429C157.366 103.973 157.822 104.521 158.282 105.07Z" fill="white"/>
<path d="M126.144 89.6264C125.65 89.4035 125.112 89.3058 124.574 89.3413C124.036 89.3768 123.514 89.5445 123.051 89.8306C124.741 90.0994 126.417 90.4603 128.07 90.9117C127.386 90.5414 126.85 89.9612 126.144 89.6264Z" fill="white"/>
<path d="M123.042 89.829L122.855 89.9686C122.918 89.9197 122.984 89.8739 123.051 89.8305L123.042 89.829Z" fill="white"/>
<path d="M150.124 96.8729C149.95 96.6408 149.719 96.4623 149.454 96.3568L149.193 96.3663C151.246 99.6785 153.935 102.516 157.094 104.702C154.77 102.092 152.447 99.4827 150.124 96.8729Z" fill="white"/>
<path d="M128.646 90.6387C128.572 90.5623 128.498 90.486 128.424 90.4097C127.851 89.7637 127.162 89.2406 126.395 88.8702C126.004 88.6996 125.585 88.61 125.161 88.6063C124.723 88.6169 124.29 88.7041 123.88 88.8641C123.688 88.9352 123.499 89.0158 123.313 89.1018C123.101 89.2003 122.893 89.3054 122.685 89.4114C122.296 89.6103 121.912 89.8179 121.532 90.0342C120.778 90.4647 120.046 90.928 119.339 91.4241C118.972 91.6815 118.613 91.9472 118.262 92.2214C117.935 92.4761 117.614 92.7376 117.3 93.006C117.233 93.0631 117.133 92.9706 117.2 92.9135C117.283 92.8424 117.367 92.7718 117.45 92.702C117.686 92.5049 117.927 92.3115 118.17 92.1219C118.615 91.7757 119.071 91.4427 119.539 91.1232C120.266 90.626 121.019 90.1626 121.796 89.7328C122.184 89.5183 122.578 89.3127 122.977 89.1162C123.098 89.0568 123.22 88.9988 123.343 88.9439C123.625 88.8129 123.916 88.7037 124.213 88.6172C124.639 88.4906 125.085 88.4501 125.526 88.4982C125.948 88.554 126.358 88.6849 126.738 88.885C127.49 89.322 128.168 89.8829 128.747 90.5458C128.807 90.6086 128.707 90.7015 128.646 90.6387Z" fill="white"/>
<path d="M59.9141 72.8208C70.2825 69.391 81.8499 70.299 91.6725 75.1308C94.4751 76.5023 97.122 78.1926 99.5644 80.1705C100.255 80.7328 101.239 79.7271 100.54 79.1589C91.5183 71.9036 80.1825 68.4571 68.8103 69.5116C65.6641 69.8035 62.5581 70.4505 59.5473 71.4411C58.7044 71.7199 59.0647 73.1018 59.9141 72.8208H59.9141Z" fill="#3F3D56"/>
<path d="M59.9141 82.359C70.2825 78.9293 81.8499 79.8373 91.6725 84.6691C94.4751 86.0406 97.122 87.7309 99.5644 89.7088C100.255 90.271 101.239 89.2654 100.54 88.6971C91.5183 81.4419 80.1825 77.9954 68.8103 79.0499C65.6641 79.3418 62.5581 79.9888 59.5473 80.9794C58.7044 81.2582 59.0647 82.64 59.9141 82.359H59.9141Z" fill="#3F3D56"/>
<path d="M59.9141 91.8973C70.2825 88.4675 81.8499 89.3755 91.6725 94.2074C94.4751 95.5789 97.122 97.2691 99.5644 99.247C100.255 99.8093 101.239 98.8036 100.54 98.2354C91.5183 90.9802 80.1825 87.5336 68.8103 88.5882C65.6641 88.8801 62.5581 89.5271 59.5473 90.5176C58.7044 90.7964 59.0647 92.1783 59.9141 91.8973H59.9141Z" fill="#3F3D56"/>
<path d="M59.9141 101.436C70.2825 98.0058 81.8499 98.9138 91.6725 103.746C94.4751 105.117 97.122 106.807 99.5644 108.785C100.255 109.348 101.239 108.342 100.54 107.774C91.5183 100.518 80.1825 97.0719 68.8103 98.1264C65.6641 98.4183 62.5581 99.0653 59.5473 100.056C58.7044 100.335 59.0647 101.717 59.9141 101.436H59.9141Z" fill="#3F3D56"/>
<path d="M59.9141 110.974C70.2825 107.544 81.8499 108.452 91.6725 113.284C94.4751 114.655 97.122 116.346 99.5644 118.324C100.255 118.886 101.239 117.88 100.54 117.312C91.5183 110.057 80.1825 106.61 68.8103 107.665C65.6641 107.957 62.5581 108.604 59.5473 109.594C58.7044 109.873 59.0647 111.255 59.9141 110.974L59.9141 110.974Z" fill="#3F3D56"/>
<path d="M107.181 57.1024H106.506V143.578H107.181V57.1024Z" fill="#E6E6E6"/>
<path d="M167.474 126.79C166.777 127.541 165.936 128.132 165.004 128.524C164.072 128.915 163.071 129.099 162.067 129.062C158.943 128.948 155.214 128.891 151.168 128.978L151.145 128.958L168.682 105.389L169.439 121.103C169.514 122.141 169.379 123.183 169.04 124.163C168.702 125.143 168.168 126.038 167.474 126.79Z" fill="#F2F2F2"/>
<path d="M123.817 209.165L122.882 217.037L122.168 223.02L121.882 225.434H117.816V223.289L117.813 216.192V209.165H123.817Z" fill="#FFB6B6"/>
<path d="M95.4666 208.34L94.3138 212.03L93.3882 214.99L93.2291 215.498L92.5958 217.522L91.2578 221.801L90.5921 223.933L86.8932 223.192L86.5977 223.135L86.838 221.848L86.9841 221.064L88.6014 212.37L88.8644 210.969L88.9066 210.744L89.0268 210.094L89.5724 207.161L93.5149 207.949L93.9695 208.04L95.4666 208.34Z" fill="#FFB6B6"/>
<path d="M129.926 162.285C127.601 175.535 127.019 181.255 127.019 181.255C127.019 181.255 128.763 183.363 127.601 184.568C126.438 185.774 127.601 188.181 127.601 188.181L124.986 217.39L122.882 217.037L117.813 216.192L115.984 215.885L117.147 188.484C117.147 188.484 115.984 186.073 116.566 185.471C117.147 184.868 115.984 181.255 115.984 181.255L114.533 152.649L105.527 183.966C105.527 183.966 106.401 185.171 105.527 186.073C104.657 186.976 102.916 191.494 102.916 191.494L97.5611 210.922L97.1064 212.572L94.3136 212.03L91.2739 211.437L90.7153 211.33L89.7216 211.134L89.0818 211.01L88.8642 210.969L87.812 210.764L88.1303 209.299L88.2959 208.528L92.8262 187.666L92.9301 187.185L93.0405 186.676C93.0405 186.676 92.4592 185.171 93.3295 184.265C93.5842 183.989 93.7701 183.653 93.8714 183.286C93.9727 182.919 93.9862 182.531 93.9109 182.158C93.8824 182.126 93.8563 182.092 93.8329 182.057C93.7301 181.91 93.6592 181.742 93.6251 181.565C93.5471 181.188 93.6153 180.659 94.2031 180.05C94.3687 179.867 94.5076 179.661 94.6156 179.437C95.4989 177.703 95.9438 174.029 95.9438 174.029C95.9438 174.029 96.7297 144.935 99.3017 140.49C99.4034 140.296 99.5467 140.129 99.7207 140.002C102.624 138.197 130.504 140.002 130.504 140.002C130.504 140.002 130.543 140.211 130.605 140.608C130.939 142.84 131.897 151.046 129.926 162.285Z" fill="#2F2E41"/>
<path d="M129.012 108.834L129.826 103.749L144.818 106.365L166.088 107.943C166.549 107.413 167.163 107.053 167.839 106.914C168.514 106.776 169.214 106.867 169.835 107.175C170.456 107.483 170.965 107.99 171.285 108.622C171.606 109.253 171.721 109.975 171.613 110.68C171.506 111.385 171.182 112.035 170.69 112.534C170.197 113.032 169.562 113.353 168.88 113.447C168.198 113.541 167.505 113.405 166.903 113.058C166.302 112.71 165.825 112.171 165.543 111.52L152.498 112.43L129.012 108.834Z" fill="#FFB6B6"/>
<path d="M117.806 105.314L118.865 100.775C118.865 100.775 124.613 99.6781 129.157 100.728L146.254 104.13L144.87 114.845L117.806 105.314Z" fill="#6C63FF"/>
<path d="M78.1233 142.69L87.6882 121.147L94.6685 105.904L100.722 109.598L81.8767 145.061C82.0422 145.693 82.0232 146.362 81.822 146.983C81.6208 147.604 81.2466 148.15 80.7465 148.55C80.2465 148.95 79.6432 149.188 79.0128 149.233C78.3824 149.278 77.7534 149.128 77.2052 148.803C76.6569 148.477 76.2142 147.99 75.9329 147.403C75.6516 146.817 75.5444 146.157 75.6249 145.507C75.7053 144.857 75.9698 144.247 76.3849 143.753C76.8 143.259 77.347 142.904 77.9568 142.732C78.0119 142.717 78.0675 142.703 78.1234 142.69L78.1233 142.69Z" fill="#FFB6B6"/>
<path d="M105.709 99.3734L101.066 97.1648C101.066 97.1648 100.243 96.8687 98.4676 99.4172C96.6923 101.966 81.4211 126.014 81.4211 126.014L91.1185 130.559L105.709 99.3734Z" fill="#6C63FF"/>
<path d="M129.072 230.121L123.028 225.791V222.966L122.168 223.02L117.816 223.289L116.67 223.36L115.877 233.199L115.867 233.337H118.722L118.748 233.199L119.232 230.542L120.469 233.199L120.534 233.337H128.107C128.335 233.336 128.56 233.289 128.77 233.199C129.051 233.076 129.295 232.876 129.476 232.622C129.657 232.368 129.769 232.067 129.8 231.753C129.831 231.438 129.78 231.12 129.652 230.833C129.524 230.546 129.323 230.3 129.072 230.121H129.072Z" fill="#2F2E41"/>
<path d="M96.8369 230.38L94.2031 227.404L92.365 225.323L92.063 224.98L92.0176 224.929L91.8714 224.764L92.4787 222.01L91.2576 221.801L86.9839 221.064L86.7533 221.027L86.2987 220.946L86.1947 220.929L84.7366 225.694L83.4149 230L83.272 230.471L85.0289 230.885L86.0551 231.128L86.5617 229.923L86.6169 229.795L86.9482 229.003V229L87.1528 228.522L87.825 231.545L87.9419 231.572L87.9581 231.576L88.3706 231.673L89.176 231.865L94.8072 233.199L95.2066 233.293C95.6466 233.395 96.1075 233.312 96.4888 233.063C96.8702 232.814 97.1412 232.418 97.2428 231.963C97.304 231.685 97.299 231.395 97.2282 231.12C97.1575 230.844 97.0232 230.59 96.8369 230.38Z" fill="#2F2E41"/>
<path d="M122.901 85.4823C122.245 86.732 121.333 87.8181 120.23 88.6648C119.126 89.5115 117.858 90.0985 116.514 90.3847C116.364 90.4184 116.215 90.4454 116.062 90.4689C113.952 90.8109 111.793 90.4025 109.936 89.3104C108.078 88.2182 106.632 86.5065 105.832 84.4537C105.032 82.4009 104.925 80.1279 105.53 78.0044C106.134 75.881 107.414 74.032 109.161 72.7585C110.907 71.4849 113.018 70.8617 115.15 70.9901C117.282 71.1186 119.309 71.9912 120.902 73.466C122.494 74.9408 123.559 76.931 123.922 79.1127C124.285 81.2945 123.925 83.5394 122.901 85.4823Z" fill="#FFB6B6"/>
<path d="M119.141 72.1724C116.046 69.9656 113.32 69.6294 111.082 70.2553C110.792 69.7899 110.385 69.4152 109.904 69.1715C108.158 64.6101 102.845 61.8707 98.2849 63.2024C93.6954 64.5426 90.5288 69.8136 91.3923 74.6754C91.9275 77.689 93.7568 80.2986 94.4926 83.2664C95.9168 89.0115 92.4424 95.5925 87.0071 97.4445C92.1533 98.5158 97.8181 95.2567 99.6643 90.1622C100.561 87.6878 100.615 84.9861 100.729 82.3454C100.759 80.5226 100.974 78.7083 101.372 76.9324C101.569 76.1357 101.847 75.363 102.203 74.6276C102.976 73.011 104.261 71.7184 105.843 70.9655C105.702 71.4197 105.666 71.9024 105.74 72.3736C105.814 72.8449 105.994 73.2912 106.267 73.6757C105.06 75.2433 104.403 76.9384 104.403 77.9536C101.896 82.7045 105.481 86.7854 110.064 89.3848C111.892 90.427 114.002 90.8085 116.062 90.469L116.254 89.6205L116.513 90.3848L117.38 92.9471C118.381 93.4488 119.372 93.9988 120.355 94.597C119.982 92.7788 119.68 90.9639 119.472 89.1895C119.184 86.7744 120.187 83.1789 120.911 80.9924C121.36 79.6448 121.59 78.2295 121.593 76.8039V76.7415L122.297 79.0884L124.863 77.9537C124.385 75.1152 124.863 71.8929 119.141 72.1724Z" fill="#2F2E41"/>
<path d="M99.4292 137.292C99.7664 135.909 99.7664 134.46 99.4292 133.077C98.8483 130.969 100.01 130.066 100.01 130.066L100.3 97.5451C101.527 96.2729 104.815 96.2522 106.654 96.3512V94.9191C106.654 94.3917 106.856 93.8859 107.216 93.513C107.575 93.1401 108.063 92.9306 108.572 92.9306H117.077C117.585 92.9306 118.073 93.1401 118.433 93.513C118.793 93.8859 118.995 94.3917 118.995 94.9191V96.6357L121.489 96.6764C125.833 97.0119 129.634 101.46 129.634 101.46L125.858 116.515C125.858 116.515 127.02 128.861 128.472 130.367C129.924 131.872 129.343 132.776 129.343 132.776C129.343 132.776 128.472 136.088 130.214 137.292C131.957 138.497 130.795 140.605 130.795 140.605C130.795 140.605 99.4292 141.207 98.5579 140.304C97.6866 139.4 99.4292 137.292 99.4292 137.292Z" fill="#6C63FF"/>
</g>
<defs>
<clipPath id="clip0_285_43">
<rect width="191" height="234" fill="white"/>
</clipPath>
</defs>
</svg>
