<svg width="152" height="213" viewBox="0 0 152 213" fill="none" xmlns="http://www.w3.org/2000/svg">
<g opacity="0.9" clip-path="url(#clip0_285_146)">
<path d="M10.7756 33.0571H59.1093C61.4417 33.0571 63.7047 33.8549 65.5262 35.3194C67.3478 36.7839 68.6196 38.8279 69.1326 41.1154L93.5546 150.025C93.821 151.213 93.8257 152.445 93.5684 153.635C93.311 154.825 92.7979 155.944 92.065 156.913C91.3321 157.883 90.3971 158.679 89.3256 159.247C88.2541 159.815 87.0721 160.14 85.8623 160.2L36.175 162.661C33.5144 162.793 30.897 161.947 28.8112 160.281C26.7254 158.616 25.3137 156.244 24.8395 153.608L10.9858 76.6078L8.36529 62.0428L4.49824 40.5493C4.33261 39.6287 4.37102 38.6826 4.61073 37.7787C4.85045 36.8747 5.28558 36.035 5.88508 35.3195C6.48459 34.604 7.23371 34.0303 8.07905 33.6392C8.92439 33.2482 9.84513 33.0494 10.7756 33.0571V33.0571Z" fill="#3F3D56"/>
<path d="M52.7708 35.6667H58.3596C59.9646 35.6667 61.5213 36.2216 62.7714 37.2394C64.0214 38.2571 64.8895 39.6764 65.2316 41.2617L88.4524 148.857C88.5861 149.476 88.586 150.117 88.452 150.737C88.3181 151.356 88.0535 151.939 87.6763 152.446C87.2991 152.952 86.8182 153.371 86.2664 153.672C85.7147 153.974 85.1051 154.151 84.4793 154.193L35.4197 157.443C34.0356 157.535 32.6667 157.108 31.574 156.244C30.4813 155.381 29.7414 154.141 29.4955 152.761L9.68108 41.5507C9.55283 40.8309 9.58242 40.0914 9.76773 39.3844C9.95305 38.6775 10.2896 38.0202 10.7536 37.4591C11.2176 36.8979 11.7978 36.4466 12.4531 36.1369C13.1085 35.8272 13.8232 35.6667 14.5466 35.6667H19.8484C20.3616 35.6667 20.8604 35.8377 21.2677 36.1533C21.675 36.4688 21.968 36.9113 22.1015 37.4122V37.4122C22.2192 37.8545 22.4779 38.2451 22.8375 38.5237C23.197 38.8023 23.6374 38.9533 24.0904 38.9533H49.2602C50.1472 38.9533 51.0016 38.6148 51.6525 38.0054C52.3034 37.3961 52.7028 36.5608 52.7708 35.6667V35.6667Z" fill="#1144B1" fill-opacity="0.9"/>
<path d="M77.2892 102.397C77.4789 102.521 77.6587 102.659 77.8267 102.81L97.4484 97.7869L98.787 93.0329L106.195 94.124L104.64 102.771C104.514 103.47 104.166 104.109 103.648 104.592C103.13 105.075 102.47 105.376 101.767 105.451L78.8568 107.874C78.4834 108.663 77.8795 109.32 77.1254 109.756C76.3713 110.193 75.5027 110.388 74.6353 110.317C73.7678 110.246 72.9426 109.911 72.2693 109.357C71.5959 108.803 71.1065 108.056 70.866 107.216C70.6256 106.376 70.6455 105.482 70.9231 104.654C71.2007 103.826 71.7229 103.102 72.4202 102.578C73.1175 102.055 73.9569 101.758 74.8266 101.725C75.6964 101.693 76.5554 101.927 77.2893 102.397H77.2892Z" fill="#FFB6B6"/>
<path d="M63.2866 120.227C70.2772 120.227 75.9441 114.536 75.9441 107.515C75.9441 100.495 70.2772 94.8036 63.2866 94.8036C56.2961 94.8036 50.6292 100.495 50.6292 107.515C50.6292 114.536 56.2961 120.227 63.2866 120.227Z" fill="white"/>
<path d="M71.2112 83.1169H55.3623L45.7941 36.1116C45.5482 33.6571 45.8173 31.1781 46.5838 28.8344C47.3503 26.4907 48.5974 24.3343 50.2445 22.5043C51.8917 20.6742 53.9024 19.2111 56.147 18.2093C58.3917 17.2074 60.8205 16.689 63.2768 16.6876C65.7332 16.6861 68.1625 17.2016 70.4084 18.2008C72.6542 19.2 74.6666 20.6607 76.316 22.4888C77.9653 24.3169 79.2148 26.4718 79.9841 28.8145C80.7534 31.1573 81.0254 33.636 80.7824 36.0908L71.2112 83.1169Z" fill="white"/>
<path d="M107.519 98.4392L102.465 102.819L95.3927 108.941L92.2692 92.8911L91.9425 91.2222L91.6853 89.8977L98.851 77.3622L104.825 77.7066L105.233 77.7312L105.241 77.8215L105.335 78.6621L106.56 89.7255L106.588 89.992L107.519 98.4392Z" fill="#3F3D56"/>
<path d="M74.48 208.202L69.4742 208.201L67.0925 188.811L74.4808 188.811L74.48 208.202Z" fill="#FFB6B6"/>
<path d="M75.7564 213.075L59.6157 213.074V212.869C59.6158 211.196 60.2778 209.591 61.4559 208.408C62.6341 207.225 64.232 206.56 65.8981 206.56H65.8985L75.7567 206.56L75.7564 213.075Z" fill="#2F2E41"/>
<path d="M126.743 208.612L121.737 208.611L119.356 189.221L126.744 189.221L126.743 208.612Z" fill="#FFB6B6"/>
<path d="M128.02 213.485L111.879 213.484V213.279C111.879 211.606 112.541 210.001 113.719 208.818C114.897 207.635 116.495 206.97 118.161 206.97H118.162L128.02 206.97L128.02 213.485Z" fill="#2F2E41"/>
<path d="M130.744 200.073L117.27 202.123L97.6669 135.496L76.8473 202.533L61.74 200.483L81.3387 122.571V116.42L83.9927 107.194L83.7149 104.697L81.7837 87.2324L80.9467 79.6586L80.8925 79.1694C80.8469 78.7588 80.9552 78.3459 81.1962 78.0111C81.4372 77.6763 81.7937 77.4436 82.1961 77.3582V77.3582L88.484 76.0296H98.761L104.824 77.7068L105.241 77.8216L105.429 77.8749L105.335 78.6622L103.914 90.6277L103.836 91.2838L102.464 102.819L102.162 105.349C114.003 113.96 114.411 122.571 114.411 122.571L130.744 200.073Z" fill="#2F2E41"/>
<path d="M92.3807 70.8417C97.9192 70.8417 102.409 66.3326 102.409 60.7703C102.409 55.2079 97.9192 50.6988 92.3807 50.6988C86.8422 50.6988 82.3523 55.2079 82.3523 60.7703C82.3523 66.3326 86.8422 70.8417 92.3807 70.8417Z" fill="#FFB6B6"/>
<path d="M102.914 103.035L83.0759 105.64L83.4465 108.486L103.285 105.881L102.914 103.035Z" fill="#3F3D56"/>
<path d="M56.4658 106.498C56.6555 106.621 56.8352 106.759 57.0032 106.911L76.625 101.888L77.9635 97.1335L85.3715 98.2246L83.8162 106.872C83.6905 107.57 83.3426 108.209 82.8247 108.692C82.3068 109.176 81.6468 109.477 80.9438 109.551L58.0333 111.974C57.6599 112.764 57.056 113.421 56.3019 113.857C55.5478 114.293 54.6793 114.489 53.8118 114.418C52.9443 114.346 52.1191 114.011 51.4458 113.457C50.7725 112.904 50.283 112.157 50.0426 111.317C49.8021 110.477 49.822 109.583 50.0996 108.755C50.3772 107.926 50.8994 107.202 51.5967 106.679C52.294 106.156 53.1334 105.858 54.0031 105.826C54.8729 105.794 55.7319 106.028 56.4658 106.498H56.4658Z" fill="#FFB6B6"/>
<path d="M86.6467 79.9252L83.1761 77.2598C82.2378 76.9024 80.952 77.918 80.7263 78.9L75.8267 98.9929L86.0343 106.374L87.4633 104.119L86.6467 79.9252Z" fill="#3F3D56"/>
<g opacity="0.2">
<path opacity="0.2" d="M106.56 89.7256C105.694 90.0709 104.811 90.372 103.914 90.6277C103.628 90.7138 103.334 90.7958 103.044 90.8738C101.133 91.4062 99.1698 91.7252 97.1891 91.8251C96.3366 91.8613 95.4826 91.838 94.6332 91.7554C93.7215 91.6641 92.8205 91.4856 91.9426 91.2223C91.9139 91.2141 91.8812 91.2059 91.8526 91.1977C90.027 90.6771 88.3532 89.722 86.9733 88.4134C86.665 88.1119 86.3772 87.79 86.1119 87.4498C85.3494 86.512 84.7901 85.4248 84.4695 84.2577C84.1489 83.0906 84.0741 81.8692 84.25 80.6715C84.2841 80.4544 84.3305 80.2395 84.3889 80.0277C84.5427 79.4506 84.7462 78.8881 84.9972 78.3464C85.1074 78.0922 85.23 77.8421 85.3606 77.596L89.9744 76.0296H98.7611L104.825 77.7068L105.233 77.7314L105.241 77.8216L105.429 77.8749L105.335 78.6622L106.56 89.7256Z" fill="black"/>
</g>
<path d="M84.6962 52.4321C82.8207 52.2013 80.7625 52.3645 79.3008 53.5669C77.839 54.7693 77.3672 57.2688 78.7512 58.5607C79.9765 59.7044 81.8924 59.4355 83.5335 59.7607C84.9473 60.0789 86.2139 60.8643 87.1306 61.9911C88.0474 63.1179 88.5612 64.521 88.5898 65.9758C88.5654 70.1478 84.5786 73.3072 83.8625 77.4168C83.3737 80.2215 84.5516 83.1733 86.5879 85.1545C88.6243 87.1357 91.4236 88.2064 94.244 88.4964C97.0645 88.7864 99.9165 88.3434 102.657 87.6157C105.41 86.8849 108.12 85.8481 110.429 84.1761C112.739 82.5042 114.632 80.1471 115.374 77.3865C116.115 74.6259 115.583 71.4608 113.672 69.3412C111.484 66.914 107.844 66.0794 105.951 63.4135C103.829 60.4251 104.614 56.1693 102.897 52.9294C101.751 50.7663 99.5797 49.2909 97.2657 48.5137C94.9517 47.7364 92.4808 47.583 90.0419 47.5077C88.76 47.4682 87.4389 47.455 86.2445 47.9244C85.0502 48.3937 84.0003 49.4634 83.9384 50.7499C83.8765 52.0364 84.6962 52.4321 84.6962 52.4321Z" fill="#2F2E41"/>
</g>
<defs>
<clipPath id="clip0_285_146">
<rect width="152" height="213" fill="white"/>
</clipPath>
</defs>
</svg>
