<svg width="303" height="247" viewBox="0 0 303 247" fill="none" xmlns="http://www.w3.org/2000/svg">
<g opacity="0.9" clip-path="url(#clip0_285_238)">
<path d="M0.3131 94.3431C0.205069 94.372 0.112917 94.4428 0.0568655 94.5398C0.000814391 94.6367 -0.0145591 94.7521 0.0141254 94.8604L11.5244 138.159C11.5533 138.267 11.6239 138.36 11.7207 138.416C11.8175 138.472 11.9325 138.487 12.0406 138.459L44.6452 129.752C44.7533 129.723 44.8454 129.652 44.9015 129.555C44.9575 129.458 44.9729 129.343 44.9442 129.235L33.4339 85.9361C33.405 85.8278 33.3344 85.7355 33.2377 85.6793C33.1409 85.6231 33.0258 85.6077 32.9177 85.6365L0.3131 94.3431Z" fill="#F2F2F2"/>
<path d="M8.32488 101.494C7.87533 101.614 7.64444 102.218 7.80989 102.841C7.97533 103.463 8.47558 103.872 8.92512 103.752L30.1181 98.0926C30.5677 97.9725 30.7986 97.3683 30.6331 96.746C30.4677 96.1236 29.9674 95.7146 29.5179 95.8346L8.32488 101.494Z" fill="white"/>
<path d="M9.6281 106.396C9.17856 106.516 8.94766 107.12 9.11311 107.742C9.27856 108.365 9.7788 108.774 10.2283 108.654L31.4214 102.994C31.8709 102.874 32.1018 102.27 31.9363 101.648C31.7709 101.025 31.2707 100.616 30.8211 100.736L9.6281 106.396Z" fill="white"/>
<path d="M10.9311 111.297C10.4815 111.417 10.2506 112.022 10.4161 112.644C10.5815 113.266 11.0818 113.675 11.5313 113.555L32.7244 107.896C33.1739 107.776 33.4048 107.172 33.2393 106.549C33.0739 105.927 32.5737 105.518 32.1241 105.638L10.9311 111.297Z" fill="white"/>
<path d="M12.2341 116.199C11.7845 116.319 11.5536 116.923 11.7191 117.546C11.8845 118.168 12.3848 118.577 12.8343 118.457L34.0273 112.798C34.4769 112.678 34.7078 112.073 34.5423 111.451C34.3769 110.829 33.8766 110.42 33.4271 110.54L12.2341 116.199Z" fill="white"/>
<path d="M13.5373 121.101C13.0877 121.221 12.8568 121.825 13.0223 122.447C13.1877 123.07 13.688 123.479 14.1375 123.359L35.3306 117.699C35.7801 117.579 36.011 116.975 35.8455 116.353C35.6801 115.73 35.1798 115.321 34.7303 115.441L13.5373 121.101Z" fill="white"/>
<path d="M14.8403 126.002C14.3907 126.123 14.1598 126.727 14.3253 127.349C14.4907 127.972 14.991 128.381 15.4405 128.26L36.6335 122.601C37.0831 122.481 37.314 121.877 37.1485 121.255C36.9831 120.632 36.4828 120.223 36.0333 120.343L14.8403 126.002Z" fill="white"/>
<path d="M1.50911 63.0972C1.41052 63.15 1.33688 63.24 1.30437 63.3472C1.27186 63.4544 1.28312 63.5702 1.33569 63.6692L22.3922 103.197C22.445 103.296 22.5347 103.37 22.6417 103.402C22.7487 103.435 22.8642 103.424 22.9629 103.371L52.7283 87.4435C52.8269 87.3906 52.9006 87.3007 52.9331 87.1935C52.9656 87.0862 52.9543 86.9705 52.9017 86.8715L31.8452 47.3434C31.7925 47.2446 31.7027 47.1708 31.5958 47.1382C31.4888 47.1057 31.3732 47.1169 31.2745 47.1696L1.50911 63.0972Z" fill="#E6E6E6"/>
<path d="M4.2759 64.2522L23.5447 100.424L49.9615 86.2884L30.6927 50.1165L4.2759 64.2522ZM2.60197 65.1478L2.60568 65.1459L2.60156 65.148L2.60197 65.1478Z" fill="white"/>
<path d="M10.9367 68.2289C10.5263 68.4485 10.4389 69.0896 10.7416 69.6578C11.0442 70.226 11.6243 70.5099 12.0347 70.2903L31.3822 59.9374C31.7926 59.7178 31.88 59.0767 31.5773 58.5085C31.2747 57.9403 30.6946 57.6564 30.2842 57.876L10.9367 68.2289Z" fill="#6C63FF"/>
<path d="M13.3204 72.7038C12.9101 72.9234 12.8227 73.5645 13.1253 74.1326C13.428 74.7008 14.0081 74.9847 14.4185 74.7651L33.766 64.4122C34.1764 64.1926 34.2638 63.5516 33.9611 62.9834C33.6585 62.4152 33.0783 62.1313 32.668 62.3509L13.3204 72.7038Z" fill="#6C63FF"/>
<path d="M15.7042 77.1787C15.2938 77.3983 15.2065 78.0394 15.5091 78.6075C15.8118 79.1757 16.3919 79.4596 16.8023 79.24L36.1498 68.8871C36.5602 68.6675 36.6476 68.0264 36.3449 67.4583C36.0423 66.8901 35.4622 66.6062 35.0518 66.8258L15.7042 77.1787Z" fill="#6C63FF"/>
<path d="M18.0878 81.6535C17.6774 81.8731 17.59 82.5142 17.8927 83.0824C18.1954 83.6506 18.7754 83.9345 19.1858 83.7149L38.5334 73.362C38.9438 73.1424 39.0311 72.5013 38.7285 71.9331C38.4258 71.3649 37.8457 71.081 37.4353 71.3006L18.0878 81.6535Z" fill="#6C63FF"/>
<path d="M20.4716 86.1284C20.0612 86.348 19.9738 86.9891 20.2765 87.5573C20.5791 88.1255 21.1592 88.4094 21.5696 88.1898L40.9172 77.8369C41.3276 77.6173 41.4149 76.9762 41.1123 76.408C40.8096 75.8398 40.2295 75.5559 39.8191 75.7756L20.4716 86.1284Z" fill="#6C63FF"/>
<path d="M22.8554 90.6033C22.445 90.8229 22.3576 91.464 22.6603 92.0321C22.9629 92.6003 23.543 92.8842 23.9534 92.6646L43.301 82.3117C43.7114 82.0921 43.7987 81.4511 43.4961 80.8829C43.1934 80.3147 42.6133 80.0308 42.2029 80.2504L22.8554 90.6033Z" fill="#6C63FF"/>
<path d="M270.744 194.111C270.648 194.054 270.533 194.038 270.424 194.065C270.316 194.093 270.223 194.163 270.166 194.26L247.421 232.836C247.364 232.933 247.348 233.048 247.376 233.157C247.403 233.265 247.473 233.358 247.569 233.415L276.618 250.62C276.715 250.677 276.83 250.694 276.938 250.666C277.046 250.638 277.139 250.568 277.196 250.471L299.941 211.895C299.998 211.798 300.014 211.683 299.987 211.575C299.959 211.466 299.889 211.373 299.793 211.316L270.744 194.111Z" fill="#E6E6E6"/>
<path d="M271.198 197.08L250.384 232.381L276.164 247.651L296.979 212.349L271.198 197.08ZM269.564 196.112L269.568 196.115L269.564 196.112L269.564 196.112Z" fill="white"/>
<path d="M271.271 204.85C270.87 204.613 270.278 204.871 269.951 205.426C269.624 205.98 269.684 206.625 270.084 206.862L288.966 218.045C289.367 218.282 289.959 218.024 290.286 217.469C290.612 216.915 290.553 216.271 290.152 216.033L271.271 204.85Z" fill="#6C63FF"/>
<path d="M268.696 209.217C268.295 208.98 267.703 209.239 267.376 209.793C267.049 210.348 267.109 210.992 267.509 211.229L286.391 222.412C286.792 222.649 287.384 222.391 287.711 221.837C288.038 221.282 287.978 220.638 287.578 220.401L268.696 209.217Z" fill="#6C63FF"/>
<path d="M266.121 213.584C265.72 213.347 265.128 213.606 264.801 214.16C264.474 214.715 264.534 215.359 264.934 215.596L283.816 226.779C284.217 227.017 284.809 226.758 285.136 226.204C285.463 225.649 285.403 225.005 285.003 224.768L266.121 213.584Z" fill="#6C63FF"/>
<path d="M263.546 217.952C263.145 217.714 262.553 217.973 262.226 218.527C261.899 219.082 261.959 219.726 262.36 219.963L281.241 231.147C281.642 231.384 282.234 231.125 282.561 230.571C282.888 230.016 282.828 229.372 282.428 229.135L263.546 217.952Z" fill="#6C63FF"/>
<path d="M260.971 222.319C260.57 222.082 259.978 222.34 259.651 222.895C259.324 223.449 259.384 224.093 259.785 224.331L278.666 235.514C279.067 235.751 279.659 235.492 279.986 234.938C280.313 234.383 280.253 233.739 279.853 233.502L260.971 222.319Z" fill="#6C63FF"/>
<path d="M258.396 226.686C257.995 226.449 257.403 226.707 257.076 227.262C256.75 227.816 256.809 228.46 257.21 228.698L276.091 239.881C276.492 240.118 277.084 239.86 277.411 239.305C277.738 238.751 277.678 238.106 277.278 237.869L258.396 226.686Z" fill="#6C63FF"/>
<path d="M76.6696 112.069C76.4045 112.211 76.2065 112.453 76.1191 112.742C76.0317 113.03 76.062 113.341 76.2033 113.607L132.817 219.884C132.958 220.149 133.2 220.348 133.487 220.435C133.775 220.523 134.086 220.493 134.351 220.351L214.379 177.528C214.644 177.386 214.842 177.144 214.93 176.855C215.017 176.567 214.987 176.256 214.846 175.99L158.232 69.7133C158.09 69.4477 157.849 69.2492 157.562 69.1616C157.274 69.074 156.963 69.1044 156.698 69.246L116.684 90.6577L76.6696 112.069Z" fill="#3F3D56"/>
<path d="M84.1086 115.175L135.916 212.427L206.941 174.422L155.134 77.169L84.1086 115.175ZM79.6081 117.583L79.618 117.578L79.6069 117.583L79.6081 117.583Z" fill="white"/>
<path d="M102.016 125.867C100.913 126.457 100.678 128.181 101.492 129.708C102.306 131.236 103.865 131.999 104.969 131.409L156.987 103.574C158.09 102.983 158.325 101.26 157.512 99.7322C156.698 98.2046 155.138 97.4412 154.035 98.0317L102.016 125.867Z" fill="#6C63FF"/>
<path d="M108.425 137.898C107.322 138.489 107.087 140.212 107.901 141.74C108.715 143.267 110.274 144.031 111.378 143.44L163.396 115.605C164.5 115.015 164.735 113.291 163.921 111.763C163.107 110.236 161.547 109.473 160.444 110.063L108.425 137.898Z" fill="#6C63FF"/>
<path d="M114.834 149.929C113.731 150.52 113.496 152.243 114.31 153.771C115.124 155.299 116.683 156.062 117.787 155.472L169.805 127.636C170.909 127.046 171.143 125.322 170.33 123.795C169.516 122.267 167.956 121.504 166.853 122.094L114.834 149.929Z" fill="#6C63FF"/>
<path d="M121.244 161.961C120.14 162.551 119.906 164.275 120.719 165.802C121.533 167.33 123.093 168.093 124.196 167.503L176.215 139.668C177.318 139.077 177.553 137.354 176.739 135.826C175.925 134.298 174.366 133.535 173.262 134.126L121.244 161.961Z" fill="#6C63FF"/>
<path d="M127.653 173.992C126.549 174.582 126.314 176.306 127.128 177.834C127.942 179.361 129.502 180.125 130.605 179.534L182.624 151.699C183.727 151.109 183.962 149.385 183.148 147.857C182.334 146.33 180.775 145.566 179.671 146.157L127.653 173.992Z" fill="#6C63FF"/>
<path d="M137.754 66.1539L184.889 69.0386L198.089 29.5841L156.747 20.8292L137.754 66.1539Z" fill="#2F2E41"/>
<path d="M171.748 56.1771C182.159 56.1771 190.599 47.7181 190.599 37.2834C190.599 26.8486 182.159 18.3896 171.748 18.3896C161.336 18.3896 152.896 26.8486 152.896 37.2834C152.896 47.7181 161.336 56.1771 171.748 56.1771Z" fill="#FFB8B8"/>
<path d="M220.156 206.661L220.278 208.131C196.548 216.32 171.161 218.475 146.395 214.402L139.394 213.076L146.056 198.269L150.423 188.562L148.851 154.982L148.684 151.507L148.479 147.074L151.324 147.057L171.549 146.935L190.824 146.812L193.763 146.795C212.194 169.517 227.401 187.983 220.156 206.661Z" fill="#2F2E41"/>
<path d="M193.485 146.517L148.478 151.529L146.811 120.343C141.53 106.842 145.016 94.7908 155.978 83.9764L158.207 75.1353C158.792 72.8147 160 70.6993 161.701 69.0192C163.402 67.339 165.53 66.1584 167.853 65.6058C175.221 61.3711 183.566 59.3527 192.929 59.6422C196.669 61.1057 199.839 63.7358 201.973 67.144C204.107 70.5521 205.09 74.5577 204.778 78.569C202.841 103.077 199.365 126.02 193.485 146.517Z" fill="#6C63FF"/>
<path d="M157.487 14.9605C157.487 14.9605 147.74 18.5257 147.489 31.4871C147.475 33.6682 147.766 35.8406 148.352 37.941C148.984 40.3232 149.491 45.4918 145.241 52.3817C142.464 56.8539 139.953 61.4868 137.721 66.2561L148.697 67.3175L150.512 49.0823C151.392 40.2414 153.566 31.5785 156.963 23.3723L157.034 23.201C157.034 23.201 162.07 31.9722 171.64 31.7021L168.125 28.3731C168.125 28.3731 180.112 32.897 186.629 33.8053C187.373 33.9091 188.075 34.2144 188.658 34.6882C189.242 35.1619 189.685 35.7863 189.941 36.4941C190.197 37.2018 190.255 37.966 190.11 38.7045C189.964 39.4429 189.62 40.1276 189.115 40.6847C189.077 40.7266 189.038 40.7687 188.998 40.811C185.012 45.0374 177.079 54.8603 182.076 62.2613C187.073 69.6623 183.029 71.8334 183.029 71.8334L190.433 67.5105L193.793 65.3587L193.87 68.0991L211.584 65.542C211.584 65.542 216.35 64.7218 205.769 53.3646C205.769 53.3646 202.935 48.9183 204.01 44.984C204.9 41.992 205.067 38.8306 204.497 35.761C201.839 22.9825 192.109 -2.29726 157.487 14.9605Z" fill="#2F2E41"/>
<path d="M161.814 93.6125L161.236 97.1988L155.146 134.822L151.324 147.057L149.979 151.362L148.851 154.982L135.143 198.865L131.382 207.721C129.319 208.486 127.545 209.878 126.31 211.703C125.075 213.527 124.439 215.693 124.493 217.898C124.546 220.102 125.285 222.235 126.607 223.998C127.929 225.76 129.768 227.065 131.866 227.729C133.964 228.393 136.217 228.383 138.309 227.701C140.401 227.018 142.229 225.698 143.535 223.923C144.842 222.149 145.563 220.01 145.597 217.805C145.631 215.6 144.976 213.44 143.725 211.626L170.554 149.073L171.549 146.935L174.594 140.391L180.344 96.9037L180.706 94.1693L161.814 93.6125Z" fill="#FFB8B8"/>
<path d="M184.039 98.0676C175.307 94.9226 166.93 94.5883 159.035 98.0676L161.612 75.6833C161.518 72.888 162.521 70.1672 164.407 68.1059C166.294 66.0445 168.911 64.8073 171.698 64.6603C174.519 64.5115 177.284 65.492 179.384 67.3862C181.484 69.2803 182.747 71.9329 182.895 74.7605L182.897 74.7972L184.039 98.0676Z" fill="#6C63FF"/>
</g>
<defs>
<clipPath id="clip0_285_238">
<rect width="303" height="247" fill="white"/>
</clipPath>
</defs>
</svg>
