<svg width="25" height="21" viewBox="0 0 25 21" fill="none" xmlns="http://www.w3.org/2000/svg">
<path d="M4.16667 4.57405V20.7872H25V4.57405H4.16667ZM14.5833 17.7473C11.7073 17.7473 9.375 15.4784 9.375 12.6806C9.375 9.88285 11.7073 7.61402 14.5833 7.61402C17.4594 7.61402 19.7917 9.88285 19.7917 12.6806C19.7917 15.4784 17.4594 17.7473 14.5833 17.7473ZM14.8875 15.6051V16.2273H14.2792V15.6375C13.651 15.6274 12.999 15.4815 12.4562 15.2079L12.7333 14.2371C13.3146 14.456 14.0875 14.688 14.6927 14.5563C15.3917 14.4023 15.5354 13.7031 14.7635 13.3656C14.1979 13.1113 12.4667 12.8904 12.4667 11.4495C12.4667 10.6439 13.0969 9.92136 14.2792 9.76429V9.13401H14.8875V9.73491C15.3271 9.74605 15.8208 9.82104 16.3729 9.98418L16.1521 10.957C15.6854 10.7989 15.1698 10.653 14.6677 10.6834C13.7635 10.7351 13.6823 11.4971 14.3146 11.8163C15.3542 12.2915 16.7115 12.6452 16.7115 13.9118C16.7125 14.9272 15.8948 15.4693 14.8875 15.6051ZM21.875 2.5474H2.08333V17.7473H0V0.520752H21.875V2.5474Z" fill="white"/>
</svg>
