<svg width="25" height="24" viewBox="0 0 25 24" fill="none" xmlns="http://www.w3.org/2000/svg">
<path fill-rule="evenodd" clip-rule="evenodd" d="M25 0.607819V21.0732C25 22.2163 24.0573 23.1423 22.8948 23.1423H2.10417C0.942708 23.1423 0 22.2153 0 21.0732V2.65641H2.08333V20.2732C2.08333 21.063 3.125 21.063 3.125 20.2732V0.607819H25ZM22.9167 20.0694V2.65641H5.20833V20.0694H22.9167ZM20.8333 16.9965V18.0208H7.29167V16.9965H20.8333ZM13.5417 10.8508V14.9479H7.29167V10.8508H13.5417ZM20.8333 13.9236V14.9479H15.625V13.9236H20.8333ZM20.8333 10.8508V11.875H15.625V10.8508H20.8333ZM16.949 8.43957C17.701 8.43957 18.2365 8.02985 18.2365 7.33743C18.2365 6.5774 17.6469 6.38791 17.1219 6.22402C16.5823 6.05399 16.4979 5.94132 16.4979 5.77743C16.4979 5.63403 16.6219 5.50497 16.8698 5.50497C17.1865 5.50497 17.35 5.66476 17.4687 5.92083L18.1375 5.51521C17.8844 4.98667 17.4385 4.70499 16.8698 4.70499C16.2698 4.70499 15.7052 5.10549 15.7052 5.79791C15.7052 6.48522 16.2104 6.74231 16.726 6.89084C17.2458 7.03936 17.4438 7.12642 17.4438 7.34767C17.4438 7.48595 17.35 7.63959 16.9729 7.63959C16.5823 7.63959 16.3688 7.43986 16.2448 7.14179L15.5615 7.55253C15.7552 8.08107 16.2208 8.43957 16.949 8.43957ZM19.7469 8.43957C20.5 8.43957 21.0344 8.02985 21.0344 7.33743C21.0344 6.5774 20.4448 6.38791 19.9198 6.22402C19.3802 6.05399 19.2958 5.94132 19.2958 5.77743C19.2958 5.63403 19.4198 5.50497 19.6677 5.50497C19.9844 5.50497 20.1479 5.66476 20.2667 5.92083L20.9354 5.51521C20.6833 4.98667 20.2375 4.70499 19.6677 4.70499C19.0687 4.70499 18.5042 5.10549 18.5042 5.79791C18.5042 6.48522 19.0094 6.74231 19.524 6.89084C20.0438 7.03936 20.2417 7.12642 20.2417 7.34767C20.2417 7.48595 20.1479 7.63959 19.7719 7.63959C19.3802 7.63959 19.1677 7.43986 19.0437 7.14179L18.3604 7.55253C18.5531 8.08107 19.0187 8.43957 19.7469 8.43957ZM7.93437 8.36787H7.14271V4.77669H8.45521C9.13854 4.77669 9.66771 5.32571 9.66771 6.00789C9.66771 6.69007 9.13854 7.2391 8.45521 7.2391H7.93437V8.36787ZM15.2646 5.56642H13.9031V6.16256H15.1406V6.94205H13.9031V7.57814H15.2896V8.36787H13.1104V4.77669H15.2646V5.56642ZM10.8573 8.36787H10.0646V4.77669H11.451C12.1094 4.77669 12.6396 5.32571 12.6396 6.00789C12.6396 6.44936 12.3823 6.84986 12.001 7.0496L12.7385 8.36787H11.8865L11.2333 7.18788H10.8573V8.36787ZM8.45521 5.54594H7.93437V6.46985H8.45521C8.69792 6.46985 8.87604 6.27011 8.87604 6.00789C8.87604 5.7467 8.69792 5.54594 8.45521 5.54594ZM11.451 5.54594H10.8573V6.46985H11.451C11.6688 6.46985 11.8469 6.27011 11.8469 6.00789C11.8469 5.7467 11.6688 5.54594 11.451 5.54594Z" fill="white"/>
</svg>
