<?xml version="1.0" encoding="utf-8"?>
<!-- Generator: Adobe Illustrator 22.1.0, SVG Export Plug-In . SVG Version: 6.00 Build 0)  -->
<svg version="1.1" id="Camada_1" xmlns="http://www.w3.org/2000/svg" xmlns:xlink="http://www.w3.org/1999/xlink" x="0px" y="0px"
	 viewBox="0 0 25 24" style="enable-background:new 0 0 25 24;" xml:space="preserve">
<path d="M25,0.6v20.5c0,1.1-0.9,2.1-2.1,2.1H2.1c-1.2,0-2.1-0.9-2.1-2.1V2.7h2.1v17.6c0,0.8,1,0.8,1,0V0.6H25z M22.9,20.1V2.7H5.2
	v17.4H22.9z M20.8,17v1H7.3v-1H20.8z M13.5,10.9v4.1H7.3v-4.1H13.5z M20.8,13.9v1h-5.2v-1H20.8z M20.8,10.9v1h-5.2v-1H20.8z
	 M16.9,8.4c0.8,0,1.3-0.4,1.3-1.1c0-0.8-0.6-0.9-1.1-1.1c-0.5-0.2-0.6-0.3-0.6-0.4c0-0.1,0.1-0.3,0.4-0.3c0.3,0,0.5,0.2,0.6,0.4
	l0.7-0.4c-0.3-0.5-0.7-0.8-1.3-0.8c-0.6,0-1.2,0.4-1.2,1.1c0,0.7,0.5,0.9,1,1.1c0.5,0.1,0.7,0.2,0.7,0.5c0,0.1-0.1,0.3-0.5,0.3
	c-0.4,0-0.6-0.2-0.7-0.5l-0.7,0.4C15.8,8.1,16.2,8.4,16.9,8.4z M19.7,8.4C20.5,8.4,21,8,21,7.3c0-0.8-0.6-0.9-1.1-1.1
	c-0.5-0.2-0.6-0.3-0.6-0.4c0-0.1,0.1-0.3,0.4-0.3c0.3,0,0.5,0.2,0.6,0.4l0.7-0.4c-0.3-0.5-0.7-0.8-1.3-0.8c-0.6,0-1.2,0.4-1.2,1.1
	c0,0.7,0.5,0.9,1,1.1C20,7,20.2,7.1,20.2,7.3c0,0.1-0.1,0.3-0.5,0.3c-0.4,0-0.6-0.2-0.7-0.5l-0.7,0.4C18.6,8.1,19,8.4,19.7,8.4z
	 M7.9,8.4H7.1V4.8h1.3c0.7,0,1.2,0.5,1.2,1.2S9.1,7.2,8.5,7.2H7.9V8.4z M15.3,5.6h-1.4v0.6h1.2v0.8h-1.2v0.6h1.4v0.8h-2.2V4.8h2.2
	V5.6z M10.9,8.4h-0.8V4.8h1.4c0.7,0,1.2,0.5,1.2,1.2c0,0.4-0.3,0.8-0.6,1l0.7,1.3h-0.9l-0.7-1.2h-0.4V8.4z M8.5,5.5H7.9v0.9h0.5
	c0.2,0,0.4-0.2,0.4-0.5C8.9,5.7,8.7,5.5,8.5,5.5z M11.5,5.5h-0.6v0.9h0.6c0.2,0,0.4-0.2,0.4-0.5C11.8,5.7,11.7,5.5,11.5,5.5z"/>
</svg>
