<svg width="21" height="20" viewBox="0 0 21 20" fill="none" xmlns="http://www.w3.org/2000/svg">
<path d="M20.8909 20L19.4709 14.8642C20.3471 13.3608 20.8075 11.6567 20.8067 9.90917C20.8042 4.44583 16.3135 0 10.796 0C8.11841 0.000833333 5.605 1.03333 3.71447 2.90667C1.82478 4.78 0.784393 7.27 0.785234 9.91833C0.78776 15.3825 5.27841 19.8283 10.796 19.8283C12.471 19.8275 14.1217 19.4117 15.5837 18.6217L20.8909 20ZM15.338 16.8275C13.9272 17.6567 12.5804 18.1533 10.7993 18.1542C6.21357 18.1542 2.47796 14.4592 2.47544 9.91667C2.47375 5.365 6.19169 1.675 10.7926 1.67333C15.3817 1.67333 19.1148 5.36833 19.1165 9.91C19.1173 11.7642 18.5685 13.1525 17.6468 14.605L18.4877 17.645L15.338 16.8275ZM5.75314 12.2742C5.81543 12.1708 5.98209 12.1092 6.23293 11.985C6.48292 11.8608 7.7127 11.2617 7.94249 11.1792C8.17144 11.0967 8.33811 11.055 8.50561 11.3033C8.67227 11.5508 9.15206 12.1092 9.29768 12.2742C9.4433 12.4392 9.58976 12.46 9.83976 12.3358C10.0898 12.2117 10.8961 11.9508 11.8515 11.1067C12.5947 10.45 13.0973 9.63917 13.2429 9.39083C13.3885 9.14333 13.258 9.00917 13.1335 8.88583C13.0207 8.775 12.8835 8.59667 12.758 8.45167C12.6309 8.30833 12.5897 8.205 12.5055 8.03917C12.4222 7.87417 12.4634 7.72917 12.5266 7.605C12.5897 7.48167 13.0897 6.2625 13.2976 5.76667C13.5013 5.28417 13.7075 5.34917 13.8607 5.34167L14.3405 5.33333C14.5072 5.33333 14.7782 5.395 15.0072 5.64333C15.2361 5.89167 15.8826 6.49 15.8826 7.70917C15.8826 8.92833 14.9861 10.1058 14.8615 10.2708C14.7361 10.4358 13.0981 12.9375 10.5889 14.01C9.99211 14.265 9.52579 14.4175 9.163 14.5317C8.56369 14.72 8.01825 14.6933 7.58728 14.63C7.10665 14.5592 6.10751 14.0308 5.89876 13.4525C5.69001 12.8733 5.69001 12.3775 5.75314 12.2742Z" fill="black"/>
</svg>
