<svg width="22" height="20" viewBox="0 0 22 20" fill="none" xmlns="http://www.w3.org/2000/svg">
<path d="M10.918 1.81818C5.91401 1.81818 1.84293 5.08364 1.84293 9.09727C1.84293 13.5673 6.51115 16.3345 10.8363 16.3345C12.5942 16.3345 13.9073 15.9736 14.8239 15.7491C15.7314 16.3064 16.2705 16.6918 18.7008 17.4036C18.2153 16.1555 18.0456 14.9055 18.1554 13.5264C18.915 12.6173 19.9931 11.3445 19.9931 9.09727C19.9931 5.08364 15.922 1.81818 10.918 1.81818ZM10.918 0C16.6698 0 21.8081 3.84182 21.8081 9.09727C21.8081 10.9609 21.1375 12.7909 19.9504 14.2109C19.9005 15.8745 20.8788 18.2618 21.7591 20C19.3978 19.5727 16.0409 18.6291 14.519 17.6945C13.2331 18.0082 12.0016 18.1518 10.8354 18.1518C4.40664 18.1518 0.0270018 13.7545 0.0270018 9.09636C0.0279093 3.81364 5.20161 0 10.918 0Z" fill="black"/>
</svg>
