<svg width="25" height="26" viewBox="0 0 25 26" fill="none" xmlns="http://www.w3.org/2000/svg">
<path fill-rule="evenodd" clip-rule="evenodd" d="M13.5427 25.3762H11.4594L11.4583 5.80998L12.5167 6.83978L13.5417 5.80998L13.5427 25.3762ZM10.6469 16.7393C9.00312 16.2141 7.37396 16.5003 6.36771 17.387C4.78542 18.7813 5.09687 21.1108 5.09687 21.1108C5.09687 21.1108 7.78437 21.8821 9.37708 20.4785C10.8958 19.1397 10.6469 16.9184 10.6469 16.7393ZM14.3396 16.7393C15.9833 16.2141 17.6125 16.5003 18.6187 17.387C20.201 18.7813 19.8906 21.1108 19.8906 21.1108C19.8906 21.1108 17.2031 21.8821 15.6104 20.4785C14.0906 19.1397 14.3406 16.9184 14.3396 16.7393ZM18.825 15.557C20.0229 14.5592 21.4906 14.2482 22.6417 14.6518C24.4531 15.2862 25 17.3468 25 17.3468C25 17.3468 23.0104 18.9049 21.1875 18.2664C19.449 17.6568 18.8875 15.7074 18.825 15.557ZM6.175 15.557C4.97708 14.5592 3.50937 14.2482 2.35833 14.6518C0.546875 15.2862 0 17.3468 0 17.3468C0 17.3468 1.98958 18.9049 3.8125 18.2664C5.55104 17.6568 6.1125 15.7074 6.175 15.557ZM10.5854 15.521C10.849 14.0824 10.4167 12.7477 9.54062 12.0053C8.16354 10.8375 6.2 11.3637 6.2 11.3637C6.2 11.3637 5.84479 13.7055 7.23125 14.8815C8.55312 16.0029 10.4312 15.5406 10.5854 15.521ZM14.4146 15.521C14.151 14.0824 14.5833 12.7477 15.4594 12.0053C16.8365 10.8375 18.8 11.3637 18.8 11.3637C18.8 11.3637 19.1552 13.7055 17.7687 14.8815C16.4469 16.0029 14.5687 15.5406 14.4146 15.521ZM19.1427 13.1041C19.5802 11.858 20.5177 10.9981 21.5385 10.7973C23.1448 10.4822 24.4531 11.755 24.4531 11.755C24.4531 11.755 23.6823 13.7528 22.0667 14.07C20.524 14.3738 19.2552 13.1875 19.1427 13.1041ZM5.85729 13.1041C5.41979 11.858 4.48229 10.9981 3.46146 10.7973C1.85521 10.4822 0.546875 11.755 0.546875 11.755C0.546875 11.755 1.31771 13.7528 2.93333 14.07C4.47604 14.3738 5.74479 13.1875 5.85729 13.1041ZM14.1448 10.6717C14.1198 9.31233 14.7188 8.15174 15.6344 7.59977C17.074 6.73165 18.7969 7.504 18.7969 7.504C18.7969 7.504 18.7687 9.70674 17.3187 10.58C15.9365 11.4142 14.2823 10.7118 14.1448 10.6717ZM10.8552 10.6717C10.8802 9.31233 10.2812 8.15174 9.36562 7.59977C7.92604 6.73165 6.20312 7.504 6.20312 7.504C6.20312 7.504 6.23125 9.70674 7.68125 10.58C9.06354 11.4142 10.7177 10.7118 10.8552 10.6717ZM5.86771 10.1568C5.94583 8.95705 5.46562 7.90768 4.68021 7.38248C3.44375 6.55658 1.89062 7.16931 1.89062 7.16931C1.89062 7.16931 1.82292 9.11564 3.06667 9.94668C4.25417 10.7396 5.74375 10.1866 5.86771 10.1568ZM19.1323 10.1568C19.0542 8.95705 19.5344 7.90768 20.3198 7.38248C21.5562 6.55658 23.1094 7.16931 23.1094 7.16931C23.1094 7.16931 23.1771 9.11564 21.9333 9.94668C20.7458 10.7396 19.2563 10.1866 19.1323 10.1568ZM14.801 7.1137C14.2083 5.9768 14.225 4.75237 14.7656 3.90999C15.6156 2.58464 17.3948 2.52903 17.3948 2.52903C17.3948 2.52903 18.2969 4.39812 17.4417 5.73171C16.625 7.00454 14.9344 7.09208 14.801 7.1137ZM10.199 7.1137C10.7917 5.9768 10.775 4.75237 10.2344 3.90999C9.38437 2.58464 7.60521 2.52903 7.60521 2.52903C7.60521 2.52903 6.70312 4.39812 7.55833 5.73171C8.375 7.00454 10.0656 7.09208 10.199 7.1137ZM7.08229 6.813C7.14792 5.80277 6.74375 4.92023 6.08229 4.47741C5.04271 3.7823 3.73438 4.29823 3.73438 4.29823C3.73438 4.29823 3.67812 5.93664 4.725 6.63588C5.72396 7.30319 6.97812 6.83875 7.08229 6.813ZM17.9177 6.813C17.8521 5.80277 18.2562 4.92023 18.9177 4.47741C19.9573 3.7823 21.2656 4.29823 21.2656 4.29823C21.2656 4.29823 21.3219 5.93664 20.275 6.63588C19.276 7.30319 18.0219 6.83875 17.9177 6.813ZM12.5406 5.7245C11.5042 5.03762 10.9385 3.99547 10.9969 3.03466C11.0885 1.52394 12.5635 0.655823 12.5635 0.655823C12.5635 0.655823 14.2094 1.81744 14.1177 3.33845C14.0292 4.78841 12.6437 5.64315 12.5406 5.7245Z" fill="white"/>
</svg>
