<svg width="22" height="22" viewBox="0 0 22 22" fill="none" xmlns="http://www.w3.org/2000/svg">
<path fill-rule="evenodd" clip-rule="evenodd" d="M11.9941 21.0044H10.2348L10.2339 4.37937L11.1276 5.25437L11.9932 4.37937L11.9941 21.0044ZM9.54872 13.6658C8.16067 13.2195 6.78495 13.4628 5.93523 14.2161C4.59909 15.4009 4.86209 17.3801 4.86209 17.3801C4.86209 17.3801 7.13152 18.0355 8.47646 16.8429C9.75895 15.7054 9.54872 13.818 9.54872 13.6658ZM12.667 13.6658C14.055 13.2195 15.4307 13.4628 16.2805 14.2161C17.6166 15.4009 17.3545 17.3801 17.3545 17.3801C17.3545 17.3801 15.0851 18.0355 13.7401 16.8429C12.4567 15.7054 12.6679 13.818 12.667 13.6658ZM16.4546 12.6613C17.4662 11.8134 18.7056 11.5491 19.6776 11.8921C21.2072 12.4311 21.669 14.182 21.669 14.182C21.669 14.182 19.9889 15.5059 18.4496 14.9634C16.9815 14.4454 16.5074 12.789 16.4546 12.6613ZM5.7725 12.6613C4.76094 11.8134 3.52155 11.5491 2.54957 11.8921C1.01991 12.4311 0.558105 14.182 0.558105 14.182C0.558105 14.182 2.23818 15.5059 3.77752 14.9634C5.24561 14.4454 5.71972 12.789 5.7725 12.6613ZM9.49682 12.6306C9.71936 11.4082 9.35432 10.2743 8.61456 9.64338C7.4517 8.65113 5.79361 9.09825 5.79361 9.09825C5.79361 9.09825 5.49366 11.088 6.66444 12.0873C7.78068 13.0401 9.36663 12.6473 9.49682 12.6306ZM12.7303 12.6306C12.5078 11.4082 12.8728 10.2743 13.6126 9.64338C14.7754 8.65113 16.4335 9.09825 16.4335 9.09825C16.4335 9.09825 16.7335 11.088 15.5627 12.0873C14.4464 13.0401 12.8605 12.6473 12.7303 12.6306ZM16.7229 10.577C17.0924 9.51825 17.884 8.78762 18.746 8.617C20.1024 8.34925 21.2072 9.43075 21.2072 9.43075C21.2072 9.43075 20.5563 11.1283 19.192 11.3978C17.8893 11.6559 16.8179 10.6479 16.7229 10.577ZM5.50422 10.577C5.13478 9.51825 4.34312 8.78762 3.48109 8.617C2.12471 8.34925 1.01991 9.43075 1.01991 9.43075C1.01991 9.43075 1.67083 11.1283 3.03512 11.3978C4.33784 11.6559 5.40922 10.6479 5.50422 10.577ZM12.5025 8.51025C12.4814 7.35525 12.9872 6.36913 13.7603 5.90013C14.976 5.1625 16.4309 5.81875 16.4309 5.81875C16.4309 5.81875 16.4071 7.69038 15.1827 8.43238C14.0154 9.14113 12.6186 8.54438 12.5025 8.51025ZM9.72464 8.51025C9.74575 7.35525 9.23997 6.36913 8.46678 5.90013C7.25114 5.1625 5.79625 5.81875 5.79625 5.81875C5.79625 5.81875 5.82 7.69038 7.04443 8.43238C8.21169 9.14113 9.60853 8.54438 9.72464 8.51025ZM5.51301 8.07275C5.57898 7.05338 5.17348 6.16175 4.51024 5.7155C3.46613 5.01375 2.15462 5.53438 2.15462 5.53438C2.15462 5.53438 2.09744 7.18812 3.14771 7.89425C4.15048 8.568 5.40834 8.09813 5.51301 8.07275ZM16.7141 8.07275C16.6481 7.05338 17.0536 6.16175 17.7169 5.7155C18.761 5.01375 20.0725 5.53438 20.0725 5.53438C20.0725 5.53438 20.1297 7.18812 19.0794 7.89425C18.0766 8.568 16.8188 8.09813 16.7141 8.07275ZM13.0566 5.48712C12.5561 4.52112 12.5702 3.48075 13.0267 2.765C13.7445 1.63888 15.2469 1.59163 15.2469 1.59163C15.2469 1.59163 16.0087 3.17975 15.2865 4.31287C14.5969 5.39437 13.1692 5.46875 13.0566 5.48712ZM9.17048 5.48712C9.67098 4.52112 9.65691 3.48075 9.20039 2.765C8.48261 1.63888 6.98022 1.59163 6.98022 1.59163C6.98022 1.59163 6.21847 3.17975 6.94064 4.31287C7.63026 5.39437 9.05789 5.46875 9.17048 5.48712ZM6.53865 5.23163C6.59407 4.37325 6.25278 3.62337 5.69422 3.24712C4.81635 2.6565 3.71155 3.09488 3.71155 3.09488C3.71155 3.09488 3.66405 4.487 4.54807 5.08112C5.39162 5.64812 6.45069 5.2535 6.53865 5.23163ZM15.6885 5.23163C15.6331 4.37325 15.9744 3.62337 16.5329 3.24712C17.4108 2.6565 18.5156 3.09488 18.5156 3.09488C18.5156 3.09488 18.5631 4.487 17.6791 5.08112C16.8355 5.64812 15.7764 5.2535 15.6885 5.23163ZM11.1479 4.30675C10.2726 3.72313 9.79501 2.83763 9.84427 2.02125C9.92168 0.737625 11.1672 0 11.1672 0C11.1672 0 12.557 0.987 12.4796 2.27938C12.4048 3.51138 11.235 4.23763 11.1479 4.30675Z" fill="black"/>
</svg>
