<svg width="20" height="20" viewBox="0 0 20 20" fill="none" xmlns="http://www.w3.org/2000/svg">
<path d="M6.63389 5.90909H7.71968L9.77793 11.8182H8.65381L8.20549 10.4545H6.17391L5.72809 11.8182H4.56814L6.63389 5.90909ZM7.898 9.51364L7.18387 7.28545L6.47473 9.51364H7.898ZM14.6411 8.23909C14.6927 8.01818 14.7244 7.85182 14.7536 7.68909L13.8369 7.49455L13.7461 7.94909C13.4369 7.9 13.107 7.89364 12.7745 7.93C12.782 7.68636 12.7953 7.44727 12.8153 7.21727H13.8394V6.27H12.9386C12.9836 6.02909 13.0211 5.88455 13.0586 5.74727L12.1637 5.45455C12.0978 5.69364 12.0428 5.92818 11.9878 6.27H10.9662V7.21727H11.8762C11.8528 7.52364 11.8378 7.84091 11.8337 8.16091C10.8279 8.56364 10.4012 9.33182 10.4012 10.0282C10.4012 10.85 10.9962 11.5736 11.9362 11.4809C13.1036 11.3645 13.8836 10.4027 14.3402 9.22C14.8127 9.51727 15.011 10.0164 14.8327 10.4791C14.6686 10.9073 14.1827 11.3145 13.2561 11.2936V12.3127C14.2844 12.33 15.296 11.9036 15.6935 10.8736C16.081 9.86636 15.6385 8.76636 14.6411 8.23909ZM13.4361 8.93546C13.2903 9.28727 13.0995 9.63636 12.8553 9.91273C12.8178 9.61909 12.792 9.29818 12.7778 8.95455C13.0011 8.92273 13.2253 8.91727 13.4361 8.93546ZM11.8578 9.26455C11.8828 9.69455 11.9278 10.0909 11.9895 10.4445C11.1587 10.6109 11.1254 9.71636 11.8578 9.26455ZM9.99958 1.81818C14.5944 1.81818 18.3326 5.08364 18.3326 9.09727C18.3326 13.5673 14.0452 16.3345 10.0746 16.3345C8.46048 16.3345 7.2547 15.9736 6.41307 15.7491C5.57977 16.3064 5.08479 16.6918 2.85321 17.4036C3.29903 16.1555 3.45486 14.9055 3.35403 13.5264C2.65656 12.6173 1.6666 11.3445 1.6666 9.09727C1.6666 5.08364 5.40477 1.81818 9.99958 1.81818ZM9.99958 0C4.71814 0 0 3.84182 0 9.09727C0 10.9609 0.615808 12.7909 1.70576 14.2109C1.75159 15.8745 0.853298 18.2618 0.0449981 20C2.21324 19.5727 5.29561 18.6291 6.69305 17.6945C7.87384 18.0082 9.00462 18.1518 10.0754 18.1518C15.9777 18.1518 20 13.7545 20 9.09636C19.9992 3.81364 15.2485 0 9.99958 0Z" fill="black" fill-opacity="0.6"/>
</svg>
