<?xml version="1.0" encoding="utf-8"?>
<!-- Generator: Adobe Illustrator 22.1.0, SVG Export Plug-In . SVG Version: 6.00 Build 0)  -->
<svg version="1.1" id="Camada_1" xmlns="http://www.w3.org/2000/svg" xmlns:xlink="http://www.w3.org/1999/xlink" x="0px" y="0px"
	 viewBox="0 0 160 35" style="enable-background:new 0 0 160 35;" xml:space="preserve">
<style type="text/css">
	.st0{fill:#FFFFFF;}
</style>
<path class="st0" d="M54.1,11.9c0-0.6-0.3-1-0.8-1c-0.3,0-0.5,0.1-0.7,0.2c-0.2,0.2-0.3,0.5-0.3,0.9l-3.8-0.6c0.1-1.1,0.6-2,1.4-2.6
	c0.9-0.6,2.1-1,3.7-1c1.7,0,3,0.3,3.8,1c0.8,0.7,1.2,1.6,1.2,2.7v3.1c0,0.5,0.3,0.8,0.8,0.8c0.1,0,0.3,0,0.3-0.1l-0.2,2.3
	c-0.5,0.2-1.1,0.4-1.8,0.4c-0.8,0-1.4-0.1-1.9-0.4s-0.9-0.7-1.1-1.2c-0.3,0.5-0.7,0.9-1.2,1.2c-0.6,0.3-1.2,0.4-1.9,0.4
	c-1,0-1.8-0.2-2.4-0.7c-0.6-0.5-0.8-1.1-0.8-1.9c0-0.7,0.2-1.3,0.7-1.8c0.5-0.5,1.1-0.8,2-0.9l3.1-0.6V11.9z M52.6,14.9
	c0,0.2,0.1,0.4,0.2,0.5c0.1,0.1,0.3,0.2,0.6,0.2c0.2,0,0.4-0.1,0.6-0.2c0.2-0.2,0.2-0.4,0.2-0.7v-0.9L53.3,14
	C52.8,14.2,52.6,14.5,52.6,14.9z M60.3,18V8.2h4.1l0.1,2.1c0.3-0.7,0.7-1.3,1.3-1.7C66.4,8.2,67.1,8,67.9,8c1,0,1.7,0.3,2.3,0.9
	c0.6,0.6,0.8,1.4,0.8,2.4V18h-4.5v-5.6c0-0.4-0.1-0.7-0.2-0.8c-0.1-0.2-0.3-0.2-0.5-0.2c-0.3,0-0.6,0.1-0.7,0.4
	c-0.1,0.2-0.2,0.6-0.2,1.1V18H60.3z M76,18.2c-1.2,0-2.1-0.4-2.8-1.3c-0.6-0.9-1-2.1-1-3.7c0-1.6,0.3-2.9,1-3.8
	C73.9,8.4,74.8,8,76,8c0.7,0,1.3,0.2,1.7,0.5c0.5,0.3,0.8,0.8,1.1,1.3V4.2h4.5V18h-4.1l-0.1-1.9c-0.3,0.6-0.7,1.2-1.2,1.6
	C77.4,18,76.8,18.2,76,18.2z M77.9,15c0.3,0,0.5-0.2,0.7-0.5c0.2-0.3,0.3-0.8,0.3-1.5c0-1.3-0.3-1.9-1-1.9c-0.3,0-0.6,0.1-0.7,0.4
	c-0.2,0.2-0.3,0.8-0.3,1.5c0,0.8,0.1,1.3,0.3,1.6S77.5,15,77.9,15z M90,8c1.1,0,2.1,0.2,2.9,0.6c0.8,0.4,1.5,1,1.9,1.7
	c0.5,0.8,0.7,1.7,0.7,2.8c0,1.1-0.2,2-0.7,2.8c-0.5,0.8-1.1,1.3-1.9,1.8c-0.8,0.4-1.8,0.6-2.9,0.6c-1.1,0-2-0.2-2.9-0.6
	c-0.8-0.4-1.5-1-1.9-1.8c-0.5-0.8-0.7-1.7-0.7-2.8c0-1.1,0.2-2,0.7-2.8c0.5-0.8,1.1-1.3,1.9-1.7C87.9,8.2,88.9,8,90,8z M90,11
	c-0.3,0-0.5,0.1-0.7,0.4c-0.2,0.3-0.2,0.8-0.2,1.7s0.1,1.4,0.2,1.7c0.2,0.3,0.4,0.4,0.7,0.4c0.3,0,0.5-0.1,0.7-0.4
	c0.2-0.3,0.3-0.8,0.3-1.7s-0.1-1.4-0.3-1.7C90.5,11.2,90.3,11,90,11z M96.6,18V8.2h4.1l0.1,2.5c0.2-0.8,0.6-1.5,1-1.9
	c0.5-0.5,1.1-0.7,1.9-0.7c0.3,0,0.5,0,0.7,0.1c0.2,0.1,0.3,0.1,0.3,0.2l-0.4,3.6c-0.1-0.1-0.3-0.1-0.5-0.1c-0.2,0-0.5-0.1-0.7-0.1
	c-0.6,0-1.1,0.1-1.4,0.4c-0.4,0.3-0.5,0.7-0.5,1.2V18H96.6z M112.7,18.2c-0.8,0-1.5-0.2-2-0.7c-0.6-0.5-1-1.1-1.2-1.8l-0.1,2.3h-4
	V4.2h4.5v5.6c0.2-0.6,0.6-1,1.1-1.3c0.5-0.3,1.1-0.5,1.9-0.5c1.1,0,2,0.5,2.6,1.4c0.6,0.9,1,2.2,1,3.8c0,1.6-0.3,2.8-1,3.7
	C114.8,17.8,113.9,18.2,112.7,18.2z M110.9,15c0.3,0,0.6-0.1,0.7-0.4c0.2-0.3,0.3-0.8,0.3-1.6c0-0.8-0.1-1.3-0.3-1.5
	c-0.2-0.3-0.4-0.4-0.7-0.4c-0.6,0-1,0.6-1,1.9c0,0.7,0.1,1.2,0.3,1.5C110.3,14.9,110.6,15,110.9,15z M122.8,8c1.1,0,2.1,0.2,2.9,0.6
	c0.8,0.4,1.5,1,1.9,1.7c0.5,0.8,0.7,1.7,0.7,2.8c0,1.1-0.2,2-0.7,2.8c-0.5,0.8-1.1,1.3-1.9,1.8c-0.8,0.4-1.8,0.6-2.9,0.6
	c-1.1,0-2-0.2-2.9-0.6c-0.8-0.4-1.5-1-1.9-1.8c-0.5-0.8-0.7-1.7-0.7-2.8c0-1.1,0.2-2,0.7-2.8c0.5-0.8,1.1-1.3,1.9-1.7
	C120.8,8.2,121.7,8,122.8,8z M122.8,11c-0.3,0-0.5,0.1-0.7,0.4c-0.2,0.3-0.2,0.8-0.2,1.7s0.1,1.4,0.2,1.7c0.2,0.3,0.4,0.4,0.7,0.4
	c0.3,0,0.5-0.1,0.7-0.4c0.2-0.3,0.3-0.8,0.3-1.7s-0.1-1.4-0.3-1.7C123.4,11.2,123.1,11,122.8,11z M134.6,8c1.1,0,2.1,0.2,2.9,0.6
	c0.8,0.4,1.5,1,1.9,1.7c0.5,0.8,0.7,1.7,0.7,2.8c0,1.1-0.2,2-0.7,2.8c-0.5,0.8-1.1,1.3-1.9,1.8c-0.8,0.4-1.8,0.6-2.9,0.6
	c-1.1,0-2-0.2-2.9-0.6c-0.8-0.4-1.5-1-1.9-1.8c-0.5-0.8-0.7-1.7-0.7-2.8c0-1.1,0.2-2,0.7-2.8c0.5-0.8,1.1-1.3,1.9-1.7
	C132.6,8.2,133.5,8,134.6,8z M134.6,11c-0.3,0-0.5,0.1-0.7,0.4c-0.2,0.3-0.2,0.8-0.2,1.7s0.1,1.4,0.2,1.7c0.2,0.3,0.4,0.4,0.7,0.4
	c0.3,0,0.5-0.1,0.7-0.4c0.2-0.3,0.3-0.8,0.3-1.7s-0.1-1.4-0.3-1.7C135.1,11.2,134.9,11,134.6,11z M145.8,4.2v7.4l2.9-3.5h4.9L150,12
	l3.7,6h-4.9l-1.8-3.4l-1.3,1.5V18h-4.5V4.2H145.8z"/>
<path class="st0" d="M47.1,29.5h-0.9V32h-1.7v-7h2.8c0.8,0,1.5,0.2,1.9,0.6c0.5,0.4,0.7,0.9,0.7,1.6c0,0.5-0.1,0.9-0.3,1.2
	c-0.2,0.3-0.5,0.6-0.9,0.8l1.5,2.8V32h-1.8L47.1,29.5z M46.2,28.2h1.1c0.3,0,0.6-0.1,0.7-0.2c0.2-0.2,0.2-0.4,0.2-0.7
	s-0.1-0.5-0.2-0.7c-0.2-0.2-0.4-0.3-0.7-0.3h-1.1V28.2z M60.7,29H58v1.7h3.1V32h-4.8v-7h4.8v1.3H58v1.5h2.7V29z M71.7,29.2H69V32
	h-1.7v-7H72v1.3h-3v1.6h2.7V29.2z M83.6,25v4.6c0,0.5-0.1,1-0.3,1.4c-0.2,0.4-0.5,0.7-1,0.9c-0.4,0.2-0.9,0.3-1.5,0.3
	c-0.9,0-1.5-0.2-2-0.7c-0.5-0.4-0.7-1-0.7-1.8V25h1.7v4.6c0,0.8,0.4,1.1,1.1,1.1c0.3,0,0.6-0.1,0.8-0.3c0.2-0.2,0.3-0.5,0.3-0.9V25
	H83.6z M95.8,31.1c-0.3,0.3-0.6,0.5-1.1,0.7c-0.5,0.2-1,0.3-1.6,0.3c-0.9,0-1.6-0.3-2.2-0.8c-0.5-0.6-0.8-1.3-0.9-2.3l0-0.6
	c0-0.7,0.1-1.3,0.4-1.8c0.2-0.5,0.6-0.9,1-1.2c0.5-0.3,1-0.4,1.6-0.4c0.9,0,1.5,0.2,2,0.6c0.5,0.4,0.8,1,0.8,1.8h-1.6
	c-0.1-0.4-0.2-0.7-0.4-0.8c-0.2-0.2-0.5-0.2-0.8-0.2c-0.4,0-0.7,0.2-1,0.5s-0.3,0.9-0.4,1.5v0.4c0,0.7,0.1,1.2,0.4,1.6
	c0.2,0.3,0.6,0.5,1.1,0.5c0.4,0,0.8-0.1,1-0.3v-1.1h-1.2v-1.2h2.9V31.1z M103.9,32h-1.7v-7h1.7V32z M114.6,30.7h-2.3l-0.4,1.3h-1.8
	l2.6-7h1.6l2.6,7H115L114.6,30.7z M112.7,29.4h1.5l-0.8-2.4L112.7,29.4z M122.7,32v-7h2.3c0.6,0,1.2,0.1,1.7,0.4
	c0.5,0.3,0.9,0.7,1.2,1.2c0.3,0.5,0.4,1.1,0.4,1.7v0.3c0,0.6-0.1,1.2-0.4,1.7c-0.3,0.5-0.7,0.9-1.1,1.2c-0.5,0.3-1,0.4-1.6,0.4
	H122.7z M124.4,26.3v4.4h0.6c0.5,0,0.9-0.2,1.1-0.5c0.3-0.3,0.4-0.9,0.4-1.5v-0.3c0-0.7-0.1-1.2-0.4-1.5c-0.3-0.3-0.6-0.5-1.1-0.5
	H124.4z M140.4,28.6c0,0.7-0.1,1.3-0.4,1.8c-0.3,0.5-0.6,0.9-1.1,1.2c-0.5,0.3-1,0.4-1.6,0.4c-0.6,0-1.1-0.1-1.6-0.4
	c-0.5-0.3-0.8-0.7-1.1-1.2c-0.3-0.5-0.4-1.1-0.4-1.8v-0.4c0-0.7,0.1-1.3,0.4-1.8c0.3-0.5,0.6-0.9,1.1-1.2c0.5-0.3,1-0.4,1.6-0.4
	c0.6,0,1.1,0.1,1.6,0.4c0.5,0.3,0.8,0.7,1.1,1.2c0.3,0.5,0.4,1.1,0.4,1.8V28.6z M138.7,28.4c0-0.7-0.1-1.2-0.4-1.6
	c-0.2-0.4-0.6-0.5-1-0.5c-0.8,0-1.3,0.6-1.3,1.9l0,0.5c0,0.7,0.1,1.2,0.3,1.6c0.2,0.4,0.6,0.6,1,0.6c0.4,0,0.8-0.2,1-0.5
	c0.2-0.4,0.3-0.9,0.4-1.6V28.4z M150.3,30.1c0-0.2-0.1-0.4-0.3-0.6c-0.2-0.1-0.5-0.3-0.9-0.4c-0.4-0.1-0.8-0.3-1.1-0.4
	c-0.9-0.4-1.4-1.1-1.4-1.8c0-0.4,0.1-0.7,0.3-1c0.2-0.3,0.5-0.5,1-0.7c0.4-0.2,0.9-0.2,1.4-0.2c0.5,0,1,0.1,1.3,0.3
	c0.4,0.2,0.7,0.4,0.9,0.8c0.2,0.3,0.3,0.7,0.3,1.1h-1.7c0-0.3-0.1-0.5-0.3-0.7c-0.2-0.2-0.4-0.2-0.7-0.2c-0.3,0-0.5,0.1-0.7,0.2
	c-0.2,0.1-0.3,0.3-0.3,0.5c0,0.2,0.1,0.3,0.3,0.5c0.2,0.1,0.5,0.3,1,0.5c0.5,0.2,0.9,0.3,1.2,0.5c0.8,0.4,1.1,1,1.1,1.8
	c0,0.6-0.2,1.1-0.7,1.4c-0.5,0.3-1.1,0.5-1.9,0.5c-0.6,0-1.1-0.1-1.5-0.3c-0.5-0.2-0.8-0.5-1-0.8c-0.2-0.4-0.3-0.8-0.3-1.2h1.7
	c0,0.4,0.1,0.7,0.3,0.8c0.2,0.2,0.5,0.3,0.9,0.3c0.3,0,0.5-0.1,0.7-0.2C150.2,30.5,150.3,30.4,150.3,30.1z"/>
<path class="st0" d="M46.6,6.9c-1.1,1.2-2.1,1.4-3.5,0.9c-2-0.7-4-1.4-6.1-1.8c-5.1-1-9.4,0.4-12.7,4.6c-1.8,2.3-3.6,4.6-5.4,6.9
	c-2,2.6-4.3,4.6-7.8,4.8c0.9,1.6,2.2,2.1,3.8,1.6c1.8-0.6,3.3-1.8,4.5-3.2c1.8-2.1,3.4-4.3,5.1-6.4c0.9-1.1,1.9-2.2,2.9-3.2
	c2.2-2.3,5-3.1,8.1-2.8c2.7,0.3,5.2,1.2,7.6,2.4c-0.8,1.2-1.9,1.5-3.4,1c-1.4-0.4-2.9-0.9-4.3-1.1c-2.5-0.4-4.7,0.2-6.4,2
	c-1.8,1.9-3.3,4.1-5.1,6c-1.6,1.9-3.2,3.7-5,5.4c-1,0.9-2.3,1.5-3.5,2.2c1.5,1.2,2.7,1.4,4.2,0.1c1.8-1.5,3.5-3.3,5.1-5
	c1.6-1.8,3-3.8,4.6-5.7c2.7-3.2,6.3-3.6,10.5-1.3c-0.5,0.9-1.6,1.4-2.8,1.3c-0.4-0.1-0.8-0.2-1.3-0.3c-1.6-0.3-3,0-4.1,1.3
	c-1.5,1.8-2.9,3.6-4.5,5.4c-1.6,1.8-3.2,3.6-4.8,5.3c-0.1,0.1-0.1,0.2-0.3,0.4c1.9-0.4,3.4-1.1,4.7-2.3c1.8-1.7,3.5-3.6,5.2-5.3
	c0.4-0.4,0.8-0.9,1.2-1.4c0.9-1,1.9-1,3-0.2c0,0.1,0,0.1,0,0.2c-2.2,2.5-4.5,5.1-6.8,7.6c-1.1,1.1-2.3,1.9-3.6,2.6
	c-4.1,2.2-8,1.7-11.8-0.8C10.8,26,8.3,23,6,19.8c-1.6-2.3-3.3-4.5-5.7-6c-0.2-0.1-0.4-0.6-0.2-0.9c1.4-4.6,5.8-6.8,10.1-5
	c2.5,1,4.5,2.7,6.6,4.6c-0.5,0.6-0.9,1.2-1.4,1.8c-0.7-0.6-1.4-1.2-2.1-1.7c-1.3-0.9-2.6-1.8-4-2.5c-2.7-1.2-5-0.3-6.5,2.3
	c1.2,1.2,2.3,2.4,3.4,3.7c0.5,0.6,1,1.3,1.5,1.9c1.3,1.8,3.1,2.3,5.2,1.5c1.6-0.6,2.7-1.7,3.8-2.9c1.9-2.4,3.8-4.9,5.8-7.3
	c3.4-4.3,7.7-6.4,13.1-6C39.4,3.7,43,5,46.6,6.9z"/>
<path class="st0" d="M7.8,12.3c-0.1,0.7-0.5,1.1-1.2,1.1S5.4,13,5.4,12.2C5.4,11.6,6,11,6.7,11C7.3,11,7.9,11.6,7.8,12.3z"/>
</svg>
