<svg width="160" height="35" viewBox="0 0 160 35" fill="none" xmlns="http://www.w3.org/2000/svg">
<path d="M54.1005 11.8601C54.1005 11.2173 53.8185 10.8958 53.2543 10.8958C52.9788 10.8958 52.7492 10.9745 52.5656 11.132C52.3819 11.2894 52.2769 11.6043 52.2507 12.0766L48.4329 11.5256C48.5248 10.4366 48.9971 9.57077 49.8498 8.92792C50.7026 8.28506 51.9424 7.96364 53.5692 7.96364C55.2747 7.96364 56.5342 8.3113 57.3476 9.00663C58.1741 9.68884 58.5874 10.5941 58.5874 11.7224V14.7726C58.5874 15.3105 58.8432 15.5795 59.3549 15.5795C59.4992 15.5795 59.6107 15.5598 59.6894 15.5204L59.4926 17.8426C59.0072 18.0787 58.4234 18.1968 57.7412 18.1968C56.9802 18.1968 56.3308 18.0656 55.7929 17.8032C55.255 17.5408 54.8943 17.1407 54.7106 16.6028C54.4482 17.0751 54.0349 17.4621 53.4708 17.7639C52.9067 18.0525 52.2638 18.1968 51.5422 18.1968C50.5058 18.1968 49.7055 17.9672 49.1414 17.508C48.5904 17.0357 48.3149 16.3929 48.3149 15.5795C48.3149 14.8579 48.5445 14.2741 49.0036 13.828C49.4628 13.3688 50.1253 13.054 50.9912 12.8834L54.1005 12.234V11.8601ZM52.5656 14.9104C52.5656 15.1203 52.6312 15.2908 52.7624 15.422C52.8935 15.5532 53.0772 15.6188 53.3134 15.6188C53.5364 15.6188 53.7201 15.5401 53.8644 15.3827C54.0218 15.2252 54.1005 15.0022 54.1005 14.7136V13.8477L53.333 14.0248C52.8214 14.156 52.5656 14.4512 52.5656 14.9104ZM60.3367 18V8.16043H64.4103L64.5086 10.3055C64.7973 9.55765 65.2302 8.98039 65.8075 8.57369C66.3847 8.16699 67.0932 7.96364 67.9328 7.96364C68.9037 7.96364 69.658 8.25226 70.1959 8.82952C70.7469 9.40677 71.0224 10.2202 71.0224 11.2697V18H66.4962V12.3914C66.4962 11.9716 66.4372 11.6896 66.3191 11.5452C66.2011 11.3878 66.0239 11.3091 65.7878 11.3091C65.4598 11.3091 65.2237 11.4272 65.0793 11.6633C64.935 11.8863 64.8629 12.2668 64.8629 12.8047V18H60.3367ZM76.0233 18.1968C74.8163 18.1968 73.8848 17.7573 73.2288 16.8783C72.586 15.9862 72.2645 14.7398 72.2645 13.1393C72.2645 11.4993 72.5925 10.2267 73.2485 9.3215C73.9176 8.41626 74.8491 7.96364 76.0429 7.96364C76.7251 7.96364 77.2958 8.13419 77.755 8.47529C78.2142 8.80328 78.5684 9.24278 78.8177 9.7938V4.2246H83.3439V18H79.2703L79.1326 16.0518C78.857 16.6946 78.4569 17.2128 77.9321 17.6064C77.4074 18 76.7711 18.1968 76.0233 18.1968ZM77.8534 15.0284C78.1552 15.0284 78.3913 14.8776 78.5619 14.5758C78.7324 14.261 78.8177 13.7624 78.8177 13.0802C78.8177 11.7945 78.4963 11.1517 77.8534 11.1517C77.5385 11.1517 77.2893 11.2829 77.1056 11.5452C76.9219 11.7945 76.8301 12.3062 76.8301 13.0802C76.8301 13.8543 76.9219 14.3725 77.1056 14.6349C77.2893 14.8973 77.5385 15.0284 77.8534 15.0284ZM89.9945 7.96364C91.0966 7.96364 92.0543 8.16699 92.8677 8.57369C93.6942 8.96727 94.3371 9.54453 94.7962 10.3055C95.2554 11.0664 95.485 11.9913 95.485 13.0802C95.485 14.156 95.2554 15.0809 94.7962 15.855C94.3371 16.6159 93.6942 17.1997 92.8677 17.6064C92.0543 18 91.0966 18.1968 89.9945 18.1968C88.9056 18.1968 87.9479 18 87.1214 17.6064C86.2948 17.1997 85.652 16.6159 85.1928 15.855C84.7336 15.0809 84.504 14.156 84.504 13.0802C84.504 11.9913 84.7336 11.0664 85.1928 10.3055C85.652 9.54453 86.2948 8.96727 87.1214 8.57369C87.9479 8.16699 88.9056 7.96364 89.9945 7.96364ZM89.9945 11.0139C89.6928 11.0139 89.4566 11.1517 89.2861 11.4272C89.1286 11.7027 89.0499 12.2537 89.0499 13.0802C89.0499 13.9067 89.1286 14.4578 89.2861 14.7333C89.4566 15.0088 89.6928 15.1465 89.9945 15.1465C90.2963 15.1465 90.5259 15.0088 90.6833 14.7333C90.8538 14.4578 90.9391 13.9067 90.9391 13.0802C90.9391 12.2537 90.8538 11.7027 90.6833 11.4272C90.5259 11.1517 90.2963 11.0139 89.9945 11.0139ZM96.6393 18V8.16043H100.713L100.811 10.6203C101.034 9.80692 101.375 9.16407 101.835 8.69177C102.307 8.20635 102.93 7.96364 103.704 7.96364C104.006 7.96364 104.235 7.98988 104.393 8.04235C104.55 8.09483 104.662 8.14731 104.727 8.19979L104.354 11.8404C104.235 11.788 104.065 11.742 103.842 11.7027C103.619 11.6633 103.376 11.6436 103.114 11.6436C102.523 11.6436 102.051 11.7814 101.697 12.0569C101.343 12.3324 101.166 12.7391 101.166 13.277V18H96.6393ZM112.704 18.1968C111.904 18.1968 111.228 17.9672 110.677 17.508C110.126 17.0488 109.726 16.4453 109.477 15.6975L109.359 18H105.383V4.2246H109.91V9.81348C110.159 9.24934 110.526 8.80328 111.012 8.47529C111.497 8.13419 112.12 7.96364 112.881 7.96364C113.983 7.96364 114.856 8.41626 115.499 9.3215C116.141 10.2267 116.463 11.4993 116.463 13.1393C116.463 14.7398 116.135 15.9862 115.479 16.8783C114.836 17.7573 113.911 18.1968 112.704 18.1968ZM110.874 15.0284C111.189 15.0284 111.438 14.8973 111.622 14.6349C111.805 14.3725 111.897 13.8543 111.897 13.0802C111.897 12.3062 111.805 11.7945 111.622 11.5452C111.438 11.2829 111.189 11.1517 110.874 11.1517C110.231 11.1517 109.91 11.7945 109.91 13.0802C109.91 13.7624 109.995 14.261 110.165 14.5758C110.336 14.8776 110.572 15.0284 110.874 15.0284ZM122.838 7.96364C123.94 7.96364 124.898 8.16699 125.711 8.57369C126.538 8.96727 127.18 9.54453 127.64 10.3055C128.099 11.0664 128.328 11.9913 128.328 13.0802C128.328 14.156 128.099 15.0809 127.64 15.855C127.18 16.6159 126.538 17.1997 125.711 17.6064C124.898 18 123.94 18.1968 122.838 18.1968C121.749 18.1968 120.791 18 119.965 17.6064C119.138 17.1997 118.495 16.6159 118.036 15.855C117.577 15.0809 117.347 14.156 117.347 13.0802C117.347 11.9913 117.577 11.0664 118.036 10.3055C118.495 9.54453 119.138 8.96727 119.965 8.57369C120.791 8.16699 121.749 7.96364 122.838 7.96364ZM122.838 11.0139C122.536 11.0139 122.3 11.1517 122.129 11.4272C121.972 11.7027 121.893 12.2537 121.893 13.0802C121.893 13.9067 121.972 14.4578 122.129 14.7333C122.3 15.0088 122.536 15.1465 122.838 15.1465C123.14 15.1465 123.369 15.0088 123.527 14.7333C123.697 14.4578 123.783 13.9067 123.783 13.0802C123.783 12.2537 123.697 11.7027 123.527 11.4272C123.369 11.1517 123.14 11.0139 122.838 11.0139ZM134.599 7.96364C135.701 7.96364 136.659 8.16699 137.472 8.57369C138.299 8.96727 138.942 9.54453 139.401 10.3055C139.86 11.0664 140.09 11.9913 140.09 13.0802C140.09 14.156 139.86 15.0809 139.401 15.855C138.942 16.6159 138.299 17.1997 137.472 17.6064C136.659 18 135.701 18.1968 134.599 18.1968C133.51 18.1968 132.553 18 131.726 17.6064C130.9 17.1997 130.257 16.6159 129.798 15.855C129.338 15.0809 129.109 14.156 129.109 13.0802C129.109 11.9913 129.338 11.0664 129.798 10.3055C130.257 9.54453 130.9 8.96727 131.726 8.57369C132.553 8.16699 133.51 7.96364 134.599 7.96364ZM134.599 11.0139C134.298 11.0139 134.061 11.1517 133.891 11.4272C133.733 11.7027 133.655 12.2537 133.655 13.0802C133.655 13.9067 133.733 14.4578 133.891 14.7333C134.061 15.0088 134.298 15.1465 134.599 15.1465C134.901 15.1465 135.131 15.0088 135.288 14.7333C135.459 14.4578 135.544 13.9067 135.544 13.0802C135.544 12.2537 135.459 11.7027 135.288 11.4272C135.131 11.1517 134.901 11.0139 134.599 11.0139ZM145.77 4.2246V11.6436L148.643 8.16043H153.504L150.001 12.0175L153.721 18H148.801L147.03 14.5561L145.77 16.0911V18H141.244V4.2246H145.77Z" fill="#1042AC"/>
<path d="M47.1277 29.5305H46.2149V32H44.5285V25.0047H47.2815C48.111 25.0047 48.7596 25.1889 49.2273 25.5572C49.6949 25.9255 49.9287 26.446 49.9287 27.1187C49.9287 27.6055 49.8294 28.0091 49.6308 28.3294C49.4355 28.6497 49.128 28.9091 48.7084 29.1077L50.1689 31.9279V32H48.3625L47.1277 29.5305ZM46.2149 28.2285H47.2815C47.6018 28.2285 47.842 28.1452 48.0021 27.9787C48.1655 27.8089 48.2472 27.5735 48.2472 27.2724C48.2472 26.9713 48.1655 26.7359 48.0021 26.5661C47.8388 26.3932 47.5986 26.3067 47.2815 26.3067H46.2149V28.2285ZM60.6975 29.0356H58.0454V30.7028H61.1779V32H56.359V25.0047H61.1875V26.3067H58.0454V27.7817H60.6975V29.0356ZM71.6824 29.2134H68.9631V32H67.2767V25.0047H71.9563V26.3067H68.9631V27.9162H71.6824V29.2134ZM83.5562 25.0047V29.5833C83.5562 30.1022 83.4457 30.5523 83.2247 30.9334C83.0037 31.3114 82.6866 31.5996 82.2734 31.7982C81.8602 31.9968 81.3718 32.0961 80.8081 32.0961C79.9561 32.0961 79.285 31.8751 78.795 31.4331C78.3049 30.9911 78.0551 30.3857 78.0455 29.617V25.0047H79.7415V29.6506C79.7607 30.4161 80.1162 30.7989 80.8081 30.7989C81.1572 30.7989 81.4214 30.7028 81.6008 30.5106C81.7802 30.3184 81.8699 30.0061 81.8699 29.5737V25.0047H83.5562ZM95.7519 31.1352C95.4925 31.4235 95.1129 31.6557 94.6133 31.8318C94.1136 32.008 93.5659 32.0961 92.9701 32.0961C92.0541 32.0961 91.3222 31.8158 90.7745 31.2553C90.2268 30.6948 89.9337 29.9149 89.8953 28.9155L89.8905 28.3102C89.8905 27.6215 90.0122 27.021 90.2556 26.5085C90.499 25.9928 90.8465 25.5972 91.2982 25.3218C91.753 25.0431 92.2783 24.9038 92.874 24.9038C93.7452 24.9038 94.4211 25.104 94.9015 25.5043C95.3852 25.9015 95.667 26.4957 95.7471 27.2868H94.1232C94.0655 26.896 93.9406 26.6174 93.7484 26.4508C93.5563 26.2843 93.284 26.201 92.9317 26.201C92.5089 26.201 92.1822 26.3804 91.9516 26.7391C91.721 27.0978 91.6041 27.6103 91.6008 28.2765V28.6993C91.6008 29.3976 91.7194 29.9229 91.9564 30.2752C92.1966 30.6243 92.573 30.7989 93.0854 30.7989C93.5242 30.7989 93.8509 30.7012 94.0655 30.5058V29.42H92.8933V28.2621H95.7519V31.1352ZM103.941 32H102.259V25.0047H103.941V32ZM114.585 30.6932H112.274L111.87 32H110.068L112.634 25.0047H114.219L116.804 32H114.993L114.585 30.6932ZM112.677 29.3912H114.181L113.427 26.9649L112.677 29.3912ZM122.73 32V25.0047H124.983C125.601 25.0047 126.157 25.1456 126.65 25.4275C127.144 25.7061 127.528 26.1017 127.804 26.6142C128.082 27.1235 128.223 27.6952 128.226 28.3294V28.6513C128.226 29.2919 128.09 29.8668 127.818 30.3761C127.549 30.8822 127.168 31.2793 126.674 31.5676C126.184 31.8527 125.637 31.9968 125.031 32H122.73ZM124.416 26.3067V30.7028H125.003C125.486 30.7028 125.858 30.5314 126.117 30.1887C126.377 29.8428 126.506 29.3303 126.506 28.6513V28.3486C126.506 27.6728 126.377 27.1635 126.117 26.8208C125.858 26.4781 125.48 26.3067 124.983 26.3067H124.416ZM140.427 28.6465C140.427 29.3287 140.3 29.9325 140.047 30.4578C139.794 30.9831 139.434 31.3882 138.966 31.6733C138.502 31.9552 137.972 32.0961 137.376 32.0961C136.78 32.0961 136.252 31.96 135.791 31.6877C135.329 31.4123 134.969 31.0199 134.71 30.5106C134.453 30.0013 134.319 29.4168 134.306 28.757V28.363C134.306 27.6776 134.431 27.0738 134.681 26.5517C134.934 26.0264 135.294 25.6213 135.762 25.3362C136.233 25.0511 136.767 24.9086 137.366 24.9086C137.959 24.9086 138.487 25.0495 138.952 25.3314C139.416 25.6132 139.777 26.0152 140.033 26.5373C140.292 27.0562 140.424 27.6519 140.427 28.3246V28.6465ZM138.712 28.3534C138.712 27.6584 138.595 27.1315 138.361 26.7727C138.13 26.4108 137.799 26.2298 137.366 26.2298C136.521 26.2298 136.074 26.864 136.026 28.1324L136.021 28.6465C136.021 29.3319 136.135 29.8588 136.362 30.2271C136.59 30.5955 136.928 30.7797 137.376 30.7797C137.802 30.7797 138.13 30.5987 138.361 30.2368C138.592 29.8748 138.708 29.3543 138.712 28.6753V28.3534ZM150.316 30.1407C150.316 29.894 150.228 29.7019 150.052 29.5641C149.879 29.4264 149.573 29.2839 149.134 29.1365C148.696 28.9892 148.337 28.8467 148.058 28.7089C147.152 28.2637 146.699 27.6519 146.699 26.8736C146.699 26.4861 146.811 26.1449 147.035 25.8503C147.262 25.5524 147.583 25.3218 147.996 25.1584C148.409 24.9919 148.873 24.9086 149.389 24.9086C149.892 24.9086 150.342 24.9983 150.739 25.1776C151.14 25.357 151.45 25.6132 151.671 25.9464C151.892 26.2763 152.003 26.6542 152.003 27.0802H150.321C150.321 26.7951 150.233 26.5741 150.057 26.4172C149.884 26.2603 149.649 26.1818 149.351 26.1818C149.05 26.1818 148.811 26.249 148.635 26.3836C148.462 26.5149 148.375 26.683 148.375 26.888C148.375 27.0674 148.471 27.2308 148.664 27.3781C148.856 27.5222 149.194 27.6728 149.677 27.8297C150.161 27.9835 150.558 28.15 150.869 28.3294C151.625 28.765 152.003 29.3655 152.003 30.1311C152.003 30.7428 151.772 31.2233 151.311 31.5724C150.85 31.9215 150.217 32.0961 149.413 32.0961C148.846 32.0961 148.332 31.9952 147.871 31.7934C147.413 31.5884 147.067 31.3098 146.833 30.9574C146.603 30.6019 146.487 30.1935 146.487 29.7323H148.178C148.178 30.107 148.274 30.3841 148.467 30.5635C148.662 30.7396 148.978 30.8277 149.413 30.8277C149.692 30.8277 149.911 30.7685 150.071 30.6499C150.235 30.5282 150.316 30.3585 150.316 30.1407Z" fill="#1042AC"/>
<path d="M46.6113 6.92889C45.5241 8.14964 44.5421 8.32916 43.1041 7.8265C41.105 7.14431 39.0709 6.39032 37.0016 5.99537C31.9513 5.02595 27.6374 6.42622 24.3406 10.5911C22.5169 12.889 20.6932 15.1869 18.9045 17.5207C16.9054 20.1417 14.5556 22.1165 11.1536 22.3678C12.0655 23.9476 13.3631 24.4862 14.9764 23.9476C16.8002 23.3372 18.2732 22.1524 19.5007 20.7162C21.2543 18.6338 22.8676 16.4077 24.5861 14.2893C25.498 13.1763 26.445 12.0632 27.462 11.0579C29.7067 8.79592 32.4423 7.93421 35.5987 8.29326C38.2993 8.6164 40.8245 9.47811 43.2444 10.7348C42.4728 11.9196 41.3155 12.2068 39.8775 11.776C38.4396 11.3451 37.0016 10.9143 35.5286 10.663C33.0736 10.2321 30.829 10.8425 29.1455 12.7095C27.3919 14.6484 25.8137 16.7667 24.0951 18.7415C22.4818 20.6085 20.9036 22.4755 19.1149 24.163C18.1329 25.0966 16.7651 25.671 15.6077 26.3891C17.1509 27.6099 18.3083 27.7894 19.8164 26.4968C21.605 24.9529 23.2885 23.2295 24.8667 21.4702C26.48 19.675 27.8829 17.6643 29.4261 15.7973C32.0915 12.5659 35.739 12.1709 39.8775 14.5047C39.3514 15.4383 38.2993 15.9409 37.1068 15.7614C36.686 15.6896 36.2651 15.546 35.8442 15.4742C34.266 15.1869 32.8281 15.5101 31.7408 16.7667C30.2327 18.526 28.8299 20.3931 27.2867 22.1524C25.7085 23.9476 24.0951 25.7069 22.4818 27.4663C22.4117 27.574 22.3415 27.6817 22.1662 27.8971C24.0601 27.5381 25.6032 26.7482 26.9009 25.5633C28.7246 23.8758 30.373 22.0088 32.0915 20.2135C32.5124 19.7827 32.8631 19.28 33.284 18.8492C34.1959 17.8798 35.2129 17.8439 36.3002 18.6697C36.3002 18.7415 36.3353 18.8133 36.3002 18.8492C34.0556 21.3984 31.846 23.9835 29.4962 26.425C28.4441 27.5022 27.1464 28.328 25.8487 29.0461C21.7804 31.2721 17.8173 30.7336 14.0646 28.2203C10.7678 26.0301 8.27769 23.0141 5.99801 19.8186C4.3847 17.5566 2.73632 15.3305 0.281284 13.8225C0.0708519 13.7148 -0.0694358 13.1763 0.03578 12.9249C1.43866 8.29326 5.82265 6.13899 10.1716 7.97012C12.6266 9.01135 14.6959 10.663 16.73 12.5659C16.2741 13.1763 15.8182 13.7507 15.3272 14.3611C14.5906 13.7507 13.9593 13.1404 13.2579 12.6377C11.9602 11.776 10.6626 10.8066 9.2597 10.1603C6.55916 8.93954 4.24441 9.83715 2.77139 12.4582C3.92877 13.6789 5.08614 14.8997 6.17337 16.1563C6.69945 16.7667 7.15539 17.4489 7.64639 18.0952C8.97913 19.8545 10.7327 20.3572 12.802 19.6391C14.3802 19.0646 15.5376 17.9875 16.5547 16.7308C18.4836 14.2893 20.3775 11.8478 22.3065 9.4063C25.6734 5.09776 29.9872 2.97939 35.3883 3.37434C39.3514 3.66158 43.034 4.99004 46.6113 6.92889Z" fill="#1042AC"/>
<path d="M7.82176 12.3146C7.75162 12.9967 7.33075 13.4276 6.59424 13.4276C5.85773 13.4276 5.43687 12.9608 5.4018 12.2428C5.36672 11.5606 5.99802 10.9502 6.66439 10.9861C7.29568 11.022 7.85683 11.5965 7.82176 12.3146Z" fill="#1042AC"/>
</svg>
