<svg width="25" height="31" viewBox="0 0 25 31" fill="none" xmlns="http://www.w3.org/2000/svg">
<path d="M12.5 0.628143C5.5975 0.628143 0 6.05931 0 12.7571C0 19.56 5.46875 24.2102 12.5 30.2864C19.5312 24.2102 25 19.56 25 12.7571C25 6.05931 19.4025 0.628143 12.5 0.628143ZM12.5 22.8718C6.97625 22.8718 2.5 18.4453 2.5 12.9857C2.5 7.52616 6.97625 3.09966 12.5 3.09966C18.0237 3.09966 22.5 7.52616 22.5 12.9857C22.5 18.4453 18.0237 22.8718 12.5 22.8718ZM17.5 12.9857V17.9288H13.75V15.4573H11.25V17.9288H7.5V12.9857H6.25L12.5 6.80695L18.75 12.9857H17.5ZM16.25 9.27847L15 8.05383V6.80695H16.25V9.27847Z" fill="white"/>
</svg>
