<?xml version="1.0" encoding="utf-8"?>
<!-- Generator: Adobe Illustrator 22.1.0, SVG Export Plug-In . SVG Version: 6.00 Build 0)  -->
<svg version="1.1" id="Camada_1" xmlns="http://www.w3.org/2000/svg" xmlns:xlink="http://www.w3.org/1999/xlink" x="0px" y="0px"
	 viewBox="0 0 23.8 27.8" style="enable-background:new 0 0 23.8 27.8;" xml:space="preserve">
<path d="M11.9,0.2c-6.4,0-11.6,5-11.6,11.3c0,6.3,5.1,10.6,11.6,16.3c6.5-5.6,11.6-10,11.6-16.3C23.5,5.2,18.3,0.2,11.9,0.2z
	 M11.9,20.8c-5.1,0-9.3-4.1-9.3-9.2c0-5.1,4.2-9.2,9.3-9.2c5.1,0,9.3,4.1,9.3,9.2C21.2,16.7,17,20.8,11.9,20.8z M16.5,11.7v4.6H13
	v-2.3h-2.3v2.3H7.2v-4.6H6.1l5.8-5.7l5.8,5.7H16.5z M15.4,8.2l-1.2-1.1V5.9h1.2V8.2z"/>
</svg>
