<svg width="25" height="20" viewBox="0 0 25 20" fill="none" xmlns="http://www.w3.org/2000/svg">
<path d="M20.3365 2.77439C18.8813 2.77439 17.9042 2.26567 16.2865 1.42432C15.399 0.965033 14.6865 0.534576 13.6635 0.534576C12.3354 0.534576 11.8437 1.21219 11.0052 2.14518C8.86771 0.504712 7.34583 1.21116 5.99687 1.84345C5.20833 2.21212 4.39375 2.59418 3.30208 2.59418H0V10.7399C1.11771 10.8449 2.08437 10.9139 3.42396 11.2177C2.60208 12.6914 3.48333 14.4688 5.12604 14.7417C5.46354 15.4368 6.1375 15.9352 6.91562 16.066C7.24062 16.7385 7.89687 17.2513 8.69583 17.3831C9.2625 18.5643 10.7396 19.0967 12.0167 18.485C12.4688 18.8537 13.0427 19.071 13.649 19.071C14.5781 19.071 15.4583 18.5736 15.8833 17.6941C16.6625 17.5325 17.2979 17.0268 17.6167 16.3595C18.3542 16.2081 18.9958 15.7375 19.3333 15.0352C20.7771 14.7448 21.7208 13.2567 21.0917 11.7625C22.2333 11.2064 23.4052 10.9798 25 10.6297V2.5293C23.999 2.59006 21.3469 2.7538 20.3365 2.77439ZM5.00417 13.057C4.61146 12.7645 4.5625 12.2043 4.89687 11.8109L5.71146 10.8233C6.04583 10.4279 6.63542 10.3445 7.02917 10.639C7.425 10.9325 7.47083 11.4896 7.1375 11.8861L6.32292 12.8706C5.98854 13.267 5.39896 13.3484 5.00417 13.057ZM6.78958 14.3772C6.39583 14.0826 6.33854 13.5368 6.67396 13.1414L7.49687 12.1435C7.83125 11.7491 8.42083 11.6657 8.81458 11.9571C9.20833 12.2506 9.25729 12.8098 8.92187 13.2032L8.09896 14.2011C7.76458 14.5975 7.18542 14.6717 6.78958 14.3772ZM8.575 15.6994C8.18125 15.4059 8.13125 14.8467 8.46771 14.4503L9.28021 13.4658C9.61458 13.0703 10.2042 12.9849 10.599 13.2784C10.9917 13.5729 11.0406 14.13 10.7062 14.5254L9.89271 15.512C9.55833 15.9085 8.96667 15.9909 8.575 15.6994ZM12.4917 15.8436L11.676 16.8353C11.3396 17.2328 10.751 17.3141 10.3573 17.0217C9.96354 16.7282 9.91562 16.1711 10.249 15.7756L11.0667 14.7829C11.4021 14.3895 11.9917 14.3051 12.3844 14.5996C12.7802 14.89 12.8281 15.4492 12.4917 15.8436ZM14.2021 17.308C14.0417 17.4305 13.8469 17.4902 13.649 17.4902C13.5062 17.4902 13.3646 17.4542 13.2312 17.3924L13.7042 16.8168C13.9115 16.5748 14.0656 16.2885 14.1625 15.9826L14.2917 16.0959C14.625 16.4738 14.5823 17.0134 14.2021 17.308ZM19.3771 13.3226C18.9937 13.6151 18.4146 13.544 18.0854 13.1723L15.4854 10.9675C15.2698 10.7852 14.9948 11.1075 15.2083 11.2867L17.7427 13.438C18.075 13.8149 18.0323 14.3576 17.651 14.648C17.2667 14.9435 16.6865 14.8735 16.3573 14.4976L14.3625 12.7696C14.15 12.5853 13.8687 12.9035 14.0802 13.0878L16.026 14.7788C16.3583 15.1547 16.3094 15.685 15.925 15.9795C15.5458 16.2699 14.976 16.2174 14.6427 15.8384L14.2625 15.5038C14.401 14.2062 13.4844 13.1146 12.2583 12.9128C11.9187 12.2084 11.2427 11.7213 10.475 11.5946C10.1396 10.8964 9.46771 10.4032 8.69167 10.2744C8.01771 8.87493 6.1625 8.47434 4.89167 9.47428C4.05729 9.22712 3.13333 9.02425 2.08333 8.8842V4.65378H3.30208C4.8625 4.65378 5.98646 4.12755 6.88854 3.7043C8.02083 3.17396 8.56458 2.92783 9.57708 3.65693C8.91042 4.31189 8.22917 4.88857 7.52812 5.29328C6.91458 5.64651 6.64062 6.32103 6.82812 7.01099C7.07396 7.91104 8.14271 8.82138 9.71042 8.82138C11.774 8.82138 12.7677 7.58974 13.8094 7.00275C15.3646 8.48155 17.9031 10.7553 19.5073 12.1785C19.7844 12.5513 19.7385 13.0456 19.3771 13.3226ZM22.9167 8.97997C21.9667 9.20138 21.0406 9.46295 20.0969 9.93357C18.9667 8.92539 16.4208 6.64541 15.5146 5.74949C14.4812 4.72895 13.4375 4.63112 12.2927 5.54662C11.4698 6.20157 10.1906 7.03674 9.19792 6.67837C10.6198 5.69285 11.8979 4.25834 13.0437 2.9752C13.3698 2.61065 13.5927 2.36556 14.6083 2.88252L15.3146 3.2481C17.1115 4.18316 18.5125 4.92359 20.6604 4.82885C21.3062 4.8031 22.2094 4.75573 22.9167 4.71557V8.97997Z" fill="white"/>
</svg>
