<svg width="26" height="19" viewBox="0 0 26 19" fill="none" xmlns="http://www.w3.org/2000/svg">
<path d="M20.7149 2.26562C19.252 2.26562 18.2697 1.75104 16.6435 0.9C15.7513 0.435417 15.035 0 14.0067 0C12.6716 0 12.1773 0.685417 11.3343 1.62917C9.18554 -0.0302083 7.65563 0.684375 6.29954 1.32396C5.50684 1.69687 4.68795 2.08333 3.59052 2.08333H0.270996V10.3229C1.39461 10.4292 2.36638 10.499 3.71304 10.8062C2.88682 12.2969 3.77273 14.0948 5.42411 14.3708C5.76339 15.074 6.44091 15.5781 7.22315 15.7104C7.54986 16.3906 8.20958 16.9094 9.01276 17.0427C9.58242 18.2375 11.0673 18.776 12.3511 18.1573C12.8056 18.5302 13.3826 18.75 13.992 18.75C14.9261 18.75 15.811 18.2469 16.2382 17.3573C17.0215 17.1938 17.6603 16.6823 17.9807 16.0073C18.7221 15.8542 19.3672 15.3781 19.7064 14.6677C21.1578 14.374 22.1066 12.8687 21.4741 11.3573C22.6218 10.7948 23.7998 10.5656 25.403 10.2115V2.01771C24.3967 2.07917 21.7306 2.24479 20.7149 2.26562ZM5.30159 12.6667C4.90681 12.3708 4.85759 11.8042 5.19373 11.4062L6.01262 10.4073C6.34876 10.0073 6.94146 9.92292 7.33729 10.2208C7.73521 10.5177 7.78129 11.0812 7.44619 11.4823L6.62731 12.4781C6.29117 12.8792 5.69847 12.9615 5.30159 12.6667ZM7.09644 14.0021C6.70061 13.7042 6.64302 13.1521 6.9802 12.7521L7.80747 11.7427C8.14361 11.3437 8.73631 11.2594 9.13213 11.5542C9.52796 11.851 9.57718 12.4167 9.23999 12.8146L8.41273 13.824C8.07659 14.225 7.49436 14.3 7.09644 14.0021ZM8.89129 15.3396C8.49546 15.0427 8.44519 14.4771 8.78343 14.076L9.60022 13.0802C9.93636 12.6802 10.5291 12.5938 10.9259 12.8906C11.3207 13.1885 11.3699 13.7521 11.0338 14.1521L10.216 15.15C9.87981 15.551 9.28502 15.6344 8.89129 15.3396ZM12.8286 15.4854L12.0087 16.4885C11.6705 16.8906 11.0788 16.9729 10.683 16.6771C10.2872 16.3802 10.239 15.8167 10.5741 15.4167L11.3961 14.4125C11.7333 14.0146 12.326 13.9292 12.7208 14.2271C13.1187 14.5208 13.1669 15.0865 12.8286 15.4854ZM14.5481 16.9667C14.3868 17.0906 14.191 17.151 13.992 17.151C13.8486 17.151 13.7062 17.1146 13.5721 17.0521L14.0475 16.4698C14.2559 16.225 14.4109 15.9354 14.5083 15.626L14.6381 15.7406C14.9732 16.1229 14.9303 16.6687 14.5481 16.9667ZM19.7504 12.9354C19.3651 13.2312 18.7828 13.1594 18.4519 12.7833L15.8382 10.5531C15.6214 10.3687 15.345 10.6948 15.5597 10.876L18.1074 13.0521C18.4415 13.4333 18.3985 13.9823 18.0153 14.276C17.6289 14.575 17.0456 14.5042 16.7147 14.124L14.7094 12.376C14.4957 12.1896 14.213 12.5115 14.4256 12.6979L16.3817 14.4083C16.7157 14.7885 16.6665 15.325 16.2801 15.6229C15.8989 15.9167 15.3261 15.8635 14.991 15.4802L14.6088 15.1417C14.7481 13.8292 13.8266 12.725 12.5941 12.5208C12.2527 11.8083 11.5731 11.3156 10.8013 11.1875C10.4641 10.4812 9.78871 9.98229 9.00857 9.85208C8.33105 8.43646 6.46604 8.03125 5.1885 9.04271C4.34972 8.79271 3.42088 8.5875 2.36533 8.44583V4.16667H3.59052C5.15918 4.16667 6.28907 3.63437 7.19592 3.20625C8.33419 2.66979 8.88081 2.42083 9.89866 3.15833C9.22847 3.82083 8.54363 4.40417 7.83888 4.81354C7.2221 5.17083 6.94669 5.85312 7.13518 6.55104C7.38232 7.46146 8.45671 8.38229 10.0327 8.38229C12.1071 8.38229 13.1061 7.13646 14.1533 6.54271C15.7167 8.03854 18.2687 10.3385 19.8813 11.7781C20.1599 12.1552 20.1138 12.6552 19.7504 12.9354ZM23.3087 8.54271C22.3537 8.76667 21.4227 9.03125 20.474 9.50729C19.3378 8.4875 16.7786 6.18125 15.8675 5.275C14.8287 4.24271 13.7795 4.14375 12.6286 5.06979C11.8014 5.73229 10.5154 6.57708 9.51749 6.21458C10.9469 5.21771 12.2318 3.76667 13.3836 2.46875C13.7114 2.1 13.9355 1.85208 14.9565 2.375L15.6665 2.74479C17.4728 3.69063 18.8813 4.43958 21.0405 4.34375C21.6898 4.31771 22.5977 4.26979 23.3087 4.22917V8.54271Z" fill="black"/>
</svg>
