<svg width="20" height="19" viewBox="0 0 20 19" fill="none" xmlns="http://www.w3.org/2000/svg">
<path d="M20 16.53L14.6663 11.4998C15.4471 10.34 15.8979 8.96642 15.8979 7.49471C15.8987 3.363 12.3323 0 7.94895 0C3.56561 0 0 3.363 0 7.4955C0 11.6288 3.56561 14.9918 7.94895 14.9918C9.4333 14.9918 10.8211 14.6063 12.0116 13.9365L17.3814 19L20 16.53ZM2.96197 7.4955C2.96197 4.90438 5.1994 2.79458 7.94811 2.79458C10.6977 2.79458 12.9351 4.90358 12.9351 7.4955C12.9351 10.0882 10.6977 12.1972 7.94811 12.1972C5.1994 12.1972 2.96197 10.0882 2.96197 7.4955Z" fill="#707070" fill-opacity="0.5"/>
</svg>
