<svg width="23" height="17" viewBox="0 0 23 17" fill="none" xmlns="http://www.w3.org/2000/svg">
<path d="M22.5193 10.4298L17.321 15.5998C16.7184 16.2003 15.9268 16.5 15.1334 16.5C12.3947 16.5 10.993 13.1881 12.9457 11.2466L18.05 6.16825C18.4997 5.72275 19.0876 5.5 19.6773 5.5C21.0541 5.5 21.9793 6.63025 21.9793 7.80908C21.9793 8.36825 21.7701 8.93842 21.3029 9.40408L16.7709 13.9123C16.1867 14.4934 15.2366 14.4934 14.6524 13.9123C14.069 13.332 14.069 12.3869 14.6524 11.8057L18.3117 8.16658L19.0747 8.92558L15.4154 12.5648C15.2513 12.727 15.2513 12.9919 15.4154 13.1542C15.5794 13.3164 15.8439 13.3164 16.0079 13.1542L20.5408 8.646C21.0172 8.17208 21.0172 7.40208 20.5408 6.92817C20.0644 6.45425 19.2912 6.45425 18.8139 6.92817L13.7097 12.0065C12.9227 12.7884 12.9227 14.0608 13.7097 14.8418C14.4948 15.6237 15.7738 15.6237 16.5599 14.8418L21.7572 9.67175L22.5193 10.4298ZM6.85363 5.04167C6.85363 4.28267 6.23438 3.66667 5.47137 3.66667C4.70836 3.66667 4.08911 4.28267 4.08911 5.04167C4.08911 5.80158 4.70836 6.41667 5.47137 6.41667C6.23438 6.41667 6.85363 5.80158 6.85363 5.04167ZM13.8295 7.80358L12.3827 5.5L10.0605 9.16667L7.77514 7.37L4.08911 12.8333H10.2577C10.3904 11.7893 10.8382 10.7782 11.6427 9.97883L13.8295 7.80358ZM10.3701 14.6667H2.24609V1.83333H18.8332V3.78217C19.1088 3.72533 19.3898 3.69417 19.6773 3.69417C20.0192 3.69417 20.3519 3.74917 20.6763 3.82892V0H0.403076V16.5H11.2935C10.8493 15.9454 10.5397 15.3239 10.3701 14.6667Z" fill="black"/>
</svg>
