<svg width="20" height="20" viewBox="0 0 20 20" fill="none" xmlns="http://www.w3.org/2000/svg">
<path d="M10 0C4.4775 0 0 4.4775 0 10C0 15.5225 4.4775 20 10 20C15.5225 20 20 15.5225 20 10C20 4.4775 15.5225 0 10 0ZM16.4608 15.2542C16.2433 14.7658 15.8033 14.4283 14.9017 14.22C12.9908 13.7792 11.2117 13.3925 12.0742 11.7658C14.695 6.81417 12.7683 4.16667 10 4.16667C7.17667 4.16667 5.29667 6.91583 7.92583 11.7658C8.81417 13.4025 6.96917 13.7883 5.09833 14.22C4.195 14.4283 3.75833 14.7683 3.5425 15.2583C2.37167 13.8225 1.66667 11.9925 1.66667 10C1.66667 5.405 5.405 1.66667 10 1.66667C14.595 1.66667 18.3333 5.405 18.3333 10C18.3333 11.9908 17.6292 13.8192 16.4608 15.2542Z" fill="#373737"/>
</svg>
